  0
SECTION
  2
HEADER
  9
$ACADVER
  1
AC1009
  9
$FILLMODE
 70
 0
  9
$SPLFRAME
 70
 1
  9
$EXTMIN
 10
0
 20
0
 30
0.0
  9
$EXTMAX
 10
1058.33
 20
1058.33
 30
0.0
  0
ENDSEC
  0
SECTION
  2
TABLES
  0
TABLE
  2
LAYER
 70
1
  0
LAYER
  2
0
 70
     0
 62
     7
  6
CONTINUOUS
  0
ENDTAB
  0
ENDSEC
  0
SECTION
  2
ENTITIES
  0
LINE
  8
0
 62
     0
 10
0.0950846
 20
148.777
 30
0.0
 11
438.721
 21
148.777
 31
0.0
  0
LINE
  8
0
 62
     0
 10
438.721
 20
148.777
 30
0.0
 11
438.721
 21
0.427193
 31
0.0
  0
LINE
  8
0
 62
     0
 10
438.721
 20
0.427193
 30
0.0
 11
0.0950846
 21
0.427193
 31
0.0
  0
LINE
  8
0
 62
     0
 10
0.0950846
 20
0.427193
 30
0.0
 11
0.0950846
 21
148.777
 31
0.0
  0
LINE
  8
0
 62
     0
 10
129.063
 20
21.9522
 30
0.0
 11
129.063
 21
17.2544
 31
0.0
  0
LINE
  8
0
 62
     0
 10
129.063
 20
17.2544
 30
0.0
 11
89.4373
 21
17.2544
 31
0.0
  0
LINE
  8
0
 62
     0
 10
89.4373
 20
17.2544
 30
0.0
 11
89.4373
 21
20.4832
 31
0.0
  0
LINE
  8
0
 62
     0
 10
89.4373
 20
20.4832
 30
0.0
 11
87.7122
 21
20.4832
 31
0.0
  0
LINE
  8
0
 62
     0
 10
87.7122
 20
20.4832
 30
0.0
 11
87.7122
 21
21.4023
 31
0.0
  0
LINE
  8
0
 62
     0
 10
87.7122
 20
21.4023
 30
0.0
 11
84.413
 21
21.4023
 31
0.0
  0
LINE
  8
0
 62
     0
 10
84.413
 20
21.4023
 30
0.0
 11
84.413
 21
20.4832
 31
0.0
  0
LINE
  8
0
 62
     0
 10
84.413
 20
20.4832
 30
0.0
 11
82.6879
 21
20.4832
 31
0.0
  0
LINE
  8
0
 62
     0
 10
82.6879
 20
20.4832
 30
0.0
 11
82.6879
 21
17.2544
 31
0.0
  0
LINE
  8
0
 62
     0
 10
82.6879
 20
17.2544
 30
0.0
 11
81.8624
 21
17.2544
 31
0.0
  0
LINE
  8
0
 62
     0
 10
81.8624
 20
17.2544
 30
0.0
 11
81.8624
 21
14.4529
 31
0.0
  0
LINE
  8
0
 62
     0
 10
81.8624
 20
14.4529
 30
0.0
 11
82.6879
 21
14.4529
 31
0.0
  0
LINE
  8
0
 62
     0
 10
82.6879
 20
14.4529
 30
0.0
 11
82.6879
 21
8.18279
 31
0.0
  0
LINE
  8
0
 62
     0
 10
82.6879
 20
8.18279
 30
0.0
 11
84.413
 21
8.18279
 31
0.0
  0
LINE
  8
0
 62
     0
 10
84.413
 20
8.18279
 30
0.0
 11
84.413
 21
7.20302
 31
0.0
  0
LINE
  8
0
 62
     0
 10
84.413
 20
7.20302
 30
0.0
 11
87.7122
 21
7.20302
 31
0.0
  0
LINE
  8
0
 62
     0
 10
87.7122
 20
7.20302
 30
0.0
 11
87.7122
 21
8.18279
 31
0.0
  0
LINE
  8
0
 62
     0
 10
87.7122
 20
8.18279
 30
0.0
 11
89.4373
 21
8.18279
 31
0.0
  0
LINE
  8
0
 62
     0
 10
89.4373
 20
8.18279
 30
0.0
 11
89.4373
 21
12.6532
 31
0.0
  0
LINE
  8
0
 62
     0
 10
89.4373
 20
12.6532
 30
0.0
 11
129.063
 21
12.6532
 31
0.0
  0
LINE
  8
0
 62
     0
 10
129.063
 20
12.6532
 30
0.0
 11
129.063
 21
7.95267
 31
0.0
  0
LINE
  8
0
 62
     0
 10
129.063
 20
7.95267
 30
0.0
 11
143.062
 21
7.95267
 31
0.0
  0
LINE
  8
0
 62
     0
 10
143.062
 20
7.95267
 30
0.0
 11
143.062
 21
12.6532
 31
0.0
  0
LINE
  8
0
 62
     0
 10
143.062
 20
12.6532
 30
0.0
 11
182.688
 21
12.6532
 31
0.0
  0
LINE
  8
0
 62
     0
 10
182.688
 20
12.6532
 30
0.0
 11
182.688
 21
8.18279
 31
0.0
  0
LINE
  8
0
 62
     0
 10
182.688
 20
8.18279
 30
0.0
 11
184.412
 21
8.18279
 31
0.0
  0
LINE
  8
0
 62
     0
 10
184.412
 20
8.18279
 30
0.0
 11
184.412
 21
7.20302
 31
0.0
  0
LINE
  8
0
 62
     0
 10
184.412
 20
7.20302
 30
0.0
 11
187.712
 21
7.20302
 31
0.0
  0
LINE
  8
0
 62
     0
 10
187.712
 20
7.20302
 30
0.0
 11
187.712
 21
8.18279
 31
0.0
  0
LINE
  8
0
 62
     0
 10
187.712
 20
8.18279
 30
0.0
 11
189.437
 21
8.18279
 31
0.0
  0
LINE
  8
0
 62
     0
 10
189.437
 20
8.18279
 30
0.0
 11
189.437
 21
14.4529
 31
0.0
  0
LINE
  8
0
 62
     0
 10
189.437
 20
14.4529
 30
0.0
 11
190.263
 21
14.4529
 31
0.0
  0
LINE
  8
0
 62
     0
 10
190.263
 20
14.4529
 30
0.0
 11
190.263
 21
17.2544
 31
0.0
  0
LINE
  8
0
 62
     0
 10
190.263
 20
17.2544
 30
0.0
 11
189.437
 21
17.2544
 31
0.0
  0
LINE
  8
0
 62
     0
 10
189.437
 20
17.2544
 30
0.0
 11
189.437
 21
20.4832
 31
0.0
  0
LINE
  8
0
 62
     0
 10
189.437
 20
20.4832
 30
0.0
 11
187.712
 21
20.4832
 31
0.0
  0
LINE
  8
0
 62
     0
 10
187.712
 20
20.4832
 30
0.0
 11
187.712
 21
21.4023
 31
0.0
  0
LINE
  8
0
 62
     0
 10
187.712
 20
21.4023
 30
0.0
 11
184.412
 21
21.4023
 31
0.0
  0
LINE
  8
0
 62
     0
 10
184.412
 20
21.4023
 30
0.0
 11
184.412
 21
20.4832
 31
0.0
  0
LINE
  8
0
 62
     0
 10
184.412
 20
20.4832
 30
0.0
 11
182.688
 21
20.4832
 31
0.0
  0
LINE
  8
0
 62
     0
 10
182.688
 20
20.4832
 30
0.0
 11
182.688
 21
17.2544
 31
0.0
  0
LINE
  8
0
 62
     0
 10
182.688
 20
17.2544
 30
0.0
 11
143.062
 21
17.2544
 31
0.0
  0
LINE
  8
0
 62
     0
 10
143.062
 20
17.2544
 30
0.0
 11
143.062
 21
21.9522
 31
0.0
  0
LINE
  8
0
 62
     0
 10
143.062
 20
21.9522
 30
0.0
 11
129.063
 21
21.9522
 31
0.0
  0
LINE
  8
0
 62
     0
 10
369.57
 20
21.9522
 30
0.0
 11
369.57
 21
17.2544
 31
0.0
  0
LINE
  8
0
 62
     0
 10
369.57
 20
17.2544
 30
0.0
 11
368.046
 21
17.2544
 31
0.0
  0
LINE
  8
0
 62
     0
 10
368.046
 20
17.2544
 30
0.0
 11
368.046
 21
20.4832
 31
0.0
  0
LINE
  8
0
 62
     0
 10
368.046
 20
20.4832
 30
0.0
 11
366.321
 21
20.4832
 31
0.0
  0
LINE
  8
0
 62
     0
 10
366.321
 20
20.4832
 30
0.0
 11
366.321
 21
21.4023
 31
0.0
  0
LINE
  8
0
 62
     0
 10
366.321
 20
21.4023
 30
0.0
 11
363.019
 21
21.4023
 31
0.0
  0
LINE
  8
0
 62
     0
 10
363.019
 20
21.4023
 30
0.0
 11
363.019
 21
20.4832
 31
0.0
  0
LINE
  8
0
 62
     0
 10
363.019
 20
20.4832
 30
0.0
 11
361.294
 21
20.4832
 31
0.0
  0
LINE
  8
0
 62
     0
 10
361.294
 20
20.4832
 30
0.0
 11
361.294
 21
17.2544
 31
0.0
  0
LINE
  8
0
 62
     0
 10
361.294
 20
17.2544
 30
0.0
 11
360.468
 21
17.2544
 31
0.0
  0
LINE
  8
0
 62
     0
 10
360.468
 20
17.2544
 30
0.0
 11
360.468
 21
14.4529
 31
0.0
  0
LINE
  8
0
 62
     0
 10
360.468
 20
14.4529
 30
0.0
 11
361.294
 21
14.4529
 31
0.0
  0
LINE
  8
0
 62
     0
 10
361.294
 20
14.4529
 30
0.0
 11
361.294
 21
8.18279
 31
0.0
  0
LINE
  8
0
 62
     0
 10
361.294
 20
8.18279
 30
0.0
 11
363.019
 21
8.18279
 31
0.0
  0
LINE
  8
0
 62
     0
 10
363.019
 20
8.18279
 30
0.0
 11
363.019
 21
7.20302
 31
0.0
  0
LINE
  8
0
 62
     0
 10
363.019
 20
7.20302
 30
0.0
 11
366.321
 21
7.20302
 31
0.0
  0
LINE
  8
0
 62
     0
 10
366.321
 20
7.20302
 30
0.0
 11
366.321
 21
8.18279
 31
0.0
  0
LINE
  8
0
 62
     0
 10
366.321
 20
8.18279
 30
0.0
 11
368.046
 21
8.18279
 31
0.0
  0
LINE
  8
0
 62
     0
 10
368.046
 20
8.18279
 30
0.0
 11
368.046
 21
12.6532
 31
0.0
  0
LINE
  8
0
 62
     0
 10
368.046
 20
12.6532
 30
0.0
 11
369.57
 21
12.6532
 31
0.0
  0
LINE
  8
0
 62
     0
 10
369.57
 20
12.6532
 30
0.0
 11
369.57
 21
7.95267
 31
0.0
  0
LINE
  8
0
 62
     0
 10
369.57
 20
7.95267
 30
0.0
 11
383.572
 21
7.95267
 31
0.0
  0
LINE
  8
0
 62
     0
 10
383.572
 20
7.95267
 30
0.0
 11
383.572
 21
12.6532
 31
0.0
  0
LINE
  8
0
 62
     0
 10
383.572
 20
12.6532
 30
0.0
 11
385.096
 21
12.6532
 31
0.0
  0
LINE
  8
0
 62
     0
 10
385.096
 20
12.6532
 30
0.0
 11
385.096
 21
8.18279
 31
0.0
  0
LINE
  8
0
 62
     0
 10
385.096
 20
8.18279
 30
0.0
 11
386.821
 21
8.18279
 31
0.0
  0
LINE
  8
0
 62
     0
 10
386.821
 20
8.18279
 30
0.0
 11
386.821
 21
7.20302
 31
0.0
  0
LINE
  8
0
 62
     0
 10
386.821
 20
7.20302
 30
0.0
 11
390.119
 21
7.20302
 31
0.0
  0
LINE
  8
0
 62
     0
 10
390.119
 20
7.20302
 30
0.0
 11
390.119
 21
8.18279
 31
0.0
  0
LINE
  8
0
 62
     0
 10
390.119
 20
8.18279
 30
0.0
 11
391.844
 21
8.18279
 31
0.0
  0
LINE
  8
0
 62
     0
 10
391.844
 20
8.18279
 30
0.0
 11
391.844
 21
14.4529
 31
0.0
  0
LINE
  8
0
 62
     0
 10
391.844
 20
14.4529
 30
0.0
 11
392.67
 21
14.4529
 31
0.0
  0
LINE
  8
0
 62
     0
 10
392.67
 20
14.4529
 30
0.0
 11
392.67
 21
17.2544
 31
0.0
  0
LINE
  8
0
 62
     0
 10
392.67
 20
17.2544
 30
0.0
 11
391.844
 21
17.2544
 31
0.0
  0
LINE
  8
0
 62
     0
 10
391.844
 20
17.2544
 30
0.0
 11
391.844
 21
20.4832
 31
0.0
  0
LINE
  8
0
 62
     0
 10
391.844
 20
20.4832
 30
0.0
 11
390.119
 21
20.4832
 31
0.0
  0
LINE
  8
0
 62
     0
 10
390.119
 20
20.4832
 30
0.0
 11
390.119
 21
21.4023
 31
0.0
  0
LINE
  8
0
 62
     0
 10
390.119
 20
21.4023
 30
0.0
 11
386.821
 21
21.4023
 31
0.0
  0
LINE
  8
0
 62
     0
 10
386.821
 20
21.4023
 30
0.0
 11
386.821
 21
20.4832
 31
0.0
  0
LINE
  8
0
 62
     0
 10
386.821
 20
20.4832
 30
0.0
 11
385.096
 21
20.4832
 31
0.0
  0
LINE
  8
0
 62
     0
 10
385.096
 20
20.4832
 30
0.0
 11
385.096
 21
17.2544
 31
0.0
  0
LINE
  8
0
 62
     0
 10
385.096
 20
17.2544
 30
0.0
 11
383.572
 21
17.2544
 31
0.0
  0
LINE
  8
0
 62
     0
 10
383.572
 20
17.2544
 30
0.0
 11
383.572
 21
21.9522
 31
0.0
  0
LINE
  8
0
 62
     0
 10
383.572
 20
21.9522
 30
0.0
 11
369.57
 21
21.9522
 31
0.0
  0
LINE
  8
0
 62
     0
 10
10.0004
 20
21.9522
 30
0.0
 11
23.9999
 21
21.9522
 31
0.0
  0
LINE
  8
0
 62
     0
 10
23.9999
 20
21.9522
 30
0.0
 11
23.9999
 21
7.95267
 31
0.0
  0
LINE
  8
0
 62
     0
 10
23.9999
 20
7.95267
 30
0.0
 11
10.0004
 21
7.95267
 31
0.0
  0
LINE
  8
0
 62
     0
 10
10.0004
 20
7.95267
 30
0.0
 11
10.0004
 21
21.9522
 31
0.0
  0
LINE
  8
0
 62
     0
 10
33.8129
 20
21.9522
 30
0.0
 11
47.8123
 21
21.9522
 31
0.0
  0
LINE
  8
0
 62
     0
 10
47.8123
 20
21.9522
 30
0.0
 11
47.8123
 21
7.95267
 31
0.0
  0
LINE
  8
0
 62
     0
 10
47.8123
 20
7.95267
 30
0.0
 11
33.8129
 21
7.95267
 31
0.0
  0
LINE
  8
0
 62
     0
 10
33.8129
 20
7.95267
 30
0.0
 11
33.8129
 21
21.9522
 31
0.0
  0
LINE
  8
0
 62
     0
 10
57.6255
 20
21.9522
 30
0.0
 11
71.6248
 21
21.9522
 31
0.0
  0
LINE
  8
0
 62
     0
 10
71.6248
 20
21.9522
 30
0.0
 11
71.6248
 21
7.95267
 31
0.0
  0
LINE
  8
0
 62
     0
 10
71.6248
 20
7.95267
 30
0.0
 11
57.6255
 21
7.95267
 31
0.0
  0
LINE
  8
0
 62
     0
 10
57.6255
 20
7.95267
 30
0.0
 11
57.6255
 21
21.9522
 31
0.0
  0
LINE
  8
0
 62
     0
 10
200.501
 20
21.9522
 30
0.0
 11
214.5
 21
21.9522
 31
0.0
  0
LINE
  8
0
 62
     0
 10
214.5
 20
21.9522
 30
0.0
 11
214.5
 21
7.95267
 31
0.0
  0
LINE
  8
0
 62
     0
 10
214.5
 20
7.95267
 30
0.0
 11
200.501
 21
7.95267
 31
0.0
  0
LINE
  8
0
 62
     0
 10
200.501
 20
7.95267
 30
0.0
 11
200.501
 21
21.9522
 31
0.0
  0
LINE
  8
0
 62
     0
 10
224.313
 20
21.9522
 30
0.0
 11
238.312
 21
21.9522
 31
0.0
  0
LINE
  8
0
 62
     0
 10
238.312
 20
21.9522
 30
0.0
 11
238.312
 21
7.95267
 31
0.0
  0
LINE
  8
0
 62
     0
 10
238.312
 20
7.95267
 30
0.0
 11
224.313
 21
7.95267
 31
0.0
  0
LINE
  8
0
 62
     0
 10
224.313
 20
7.95267
 30
0.0
 11
224.313
 21
21.9522
 31
0.0
  0
LINE
  8
0
 62
     0
 10
248.126
 20
21.9522
 30
0.0
 11
262.125
 21
21.9522
 31
0.0
  0
LINE
  8
0
 62
     0
 10
262.125
 20
21.9522
 30
0.0
 11
262.125
 21
7.95267
 31
0.0
  0
LINE
  8
0
 62
     0
 10
262.125
 20
7.95267
 30
0.0
 11
248.126
 21
7.95267
 31
0.0
  0
LINE
  8
0
 62
     0
 10
248.126
 20
7.95267
 30
0.0
 11
248.126
 21
21.9522
 31
0.0
  0
LINE
  8
0
 62
     0
 10
271.938
 20
21.9522
 30
0.0
 11
285.937
 21
21.9522
 31
0.0
  0
LINE
  8
0
 62
     0
 10
285.937
 20
21.9522
 30
0.0
 11
285.937
 21
7.95267
 31
0.0
  0
LINE
  8
0
 62
     0
 10
285.937
 20
7.95267
 30
0.0
 11
271.938
 21
7.95267
 31
0.0
  0
LINE
  8
0
 62
     0
 10
271.938
 20
7.95267
 30
0.0
 11
271.938
 21
21.9522
 31
0.0
  0
LINE
  8
0
 62
     0
 10
298.132
 20
21.9522
 30
0.0
 11
312.131
 21
21.9522
 31
0.0
  0
LINE
  8
0
 62
     0
 10
312.131
 20
21.9522
 30
0.0
 11
312.131
 21
7.95267
 31
0.0
  0
LINE
  8
0
 62
     0
 10
312.131
 20
7.95267
 30
0.0
 11
298.132
 21
7.95267
 31
0.0
  0
LINE
  8
0
 62
     0
 10
298.132
 20
7.95267
 30
0.0
 11
298.132
 21
21.9522
 31
0.0
  0
LINE
  8
0
 62
     0
 10
317.182
 20
21.9522
 30
0.0
 11
331.181
 21
21.9522
 31
0.0
  0
LINE
  8
0
 62
     0
 10
331.181
 20
21.9522
 30
0.0
 11
331.181
 21
7.95267
 31
0.0
  0
LINE
  8
0
 62
     0
 10
331.181
 20
7.95267
 30
0.0
 11
317.182
 21
7.95267
 31
0.0
  0
LINE
  8
0
 62
     0
 10
317.182
 20
7.95267
 30
0.0
 11
317.182
 21
21.9522
 31
0.0
  0
LINE
  8
0
 62
     0
 10
336.232
 20
21.9522
 30
0.0
 11
350.231
 21
21.9522
 31
0.0
  0
LINE
  8
0
 62
     0
 10
350.231
 20
21.9522
 30
0.0
 11
350.231
 21
7.95267
 31
0.0
  0
LINE
  8
0
 62
     0
 10
350.231
 20
7.95267
 30
0.0
 11
336.232
 21
7.95267
 31
0.0
  0
LINE
  8
0
 62
     0
 10
336.232
 20
7.95267
 30
0.0
 11
336.232
 21
21.9522
 31
0.0
  0
LINE
  8
0
 62
     0
 10
398.145
 20
21.9522
 30
0.0
 11
412.147
 21
21.9522
 31
0.0
  0
LINE
  8
0
 62
     0
 10
412.147
 20
21.9522
 30
0.0
 11
412.147
 21
7.95267
 31
0.0
  0
LINE
  8
0
 62
     0
 10
412.147
 20
7.95267
 30
0.0
 11
398.145
 21
7.95267
 31
0.0
  0
LINE
  8
0
 62
     0
 10
398.145
 20
7.95267
 30
0.0
 11
398.145
 21
21.9522
 31
0.0
  0
LINE
  8
0
 62
     0
 10
423.693
 20
40.579
 30
0.0
 11
423.693
 21
39.7538
 31
0.0
  0
LINE
  8
0
 62
     0
 10
423.693
 20
39.7538
 30
0.0
 11
417.424
 21
39.7538
 31
0.0
  0
LINE
  8
0
 62
     0
 10
417.424
 20
39.7538
 30
0.0
 11
417.424
 21
38.0284
 31
0.0
  0
LINE
  8
0
 62
     0
 10
417.424
 20
38.0284
 30
0.0
 11
416.444
 21
38.0284
 31
0.0
  0
LINE
  8
0
 62
     0
 10
416.444
 20
38.0284
 30
0.0
 11
416.444
 21
34.7293
 31
0.0
  0
LINE
  8
0
 62
     0
 10
416.444
 20
34.7293
 30
0.0
 11
417.424
 21
34.7293
 31
0.0
  0
LINE
  8
0
 62
     0
 10
417.424
 20
34.7293
 30
0.0
 11
417.424
 21
33.004
 31
0.0
  0
LINE
  8
0
 62
     0
 10
417.424
 20
33.004
 30
0.0
 11
421.894
 21
33.004
 31
0.0
  0
LINE
  8
0
 62
     0
 10
421.894
 20
33.004
 30
0.0
 11
421.894
 21
31.4785
 31
0.0
  0
LINE
  8
0
 62
     0
 10
421.894
 20
31.4785
 30
0.0
 11
417.195
 21
31.4785
 31
0.0
  0
LINE
  8
0
 62
     0
 10
417.195
 20
31.4785
 30
0.0
 11
417.195
 21
17.479
 31
0.0
  0
LINE
  8
0
 62
     0
 10
417.195
 20
17.479
 30
0.0
 11
421.894
 21
17.479
 31
0.0
  0
LINE
  8
0
 62
     0
 10
421.894
 20
17.479
 30
0.0
 11
421.894
 21
15.9522
 31
0.0
  0
LINE
  8
0
 62
     0
 10
421.894
 20
15.9522
 30
0.0
 11
417.424
 21
15.9522
 31
0.0
  0
LINE
  8
0
 62
     0
 10
417.424
 20
15.9522
 30
0.0
 11
417.424
 21
14.2282
 31
0.0
  0
LINE
  8
0
 62
     0
 10
417.424
 20
14.2282
 30
0.0
 11
416.444
 21
14.2282
 31
0.0
  0
LINE
  8
0
 62
     0
 10
416.444
 20
14.2282
 30
0.0
 11
416.444
 21
10.9279
 31
0.0
  0
LINE
  8
0
 62
     0
 10
416.444
 20
10.9279
 30
0.0
 11
417.424
 21
10.9279
 31
0.0
  0
LINE
  8
0
 62
     0
 10
417.424
 20
10.9279
 30
0.0
 11
417.424
 21
9.20253
 31
0.0
  0
LINE
  8
0
 62
     0
 10
417.424
 20
9.20253
 30
0.0
 11
423.693
 21
9.20253
 31
0.0
  0
LINE
  8
0
 62
     0
 10
423.693
 20
9.20253
 30
0.0
 11
423.693
 21
8.37847
 31
0.0
  0
LINE
  8
0
 62
     0
 10
423.693
 20
8.37847
 30
0.0
 11
426.494
 21
8.37847
 31
0.0
  0
LINE
  8
0
 62
     0
 10
426.494
 20
8.37847
 30
0.0
 11
426.494
 21
9.20253
 31
0.0
  0
LINE
  8
0
 62
     0
 10
426.494
 20
9.20253
 30
0.0
 11
429.726
 21
9.20253
 31
0.0
  0
LINE
  8
0
 62
     0
 10
429.726
 20
9.20253
 30
0.0
 11
429.726
 21
10.9279
 31
0.0
  0
LINE
  8
0
 62
     0
 10
429.726
 20
10.9279
 30
0.0
 11
430.643
 21
10.9279
 31
0.0
  0
LINE
  8
0
 62
     0
 10
430.643
 20
10.9279
 30
0.0
 11
430.643
 21
14.2282
 31
0.0
  0
LINE
  8
0
 62
     0
 10
430.643
 20
14.2282
 30
0.0
 11
429.726
 21
14.2282
 31
0.0
  0
LINE
  8
0
 62
     0
 10
429.726
 20
14.2282
 30
0.0
 11
429.726
 21
15.9522
 31
0.0
  0
LINE
  8
0
 62
     0
 10
429.726
 20
15.9522
 30
0.0
 11
426.494
 21
15.9522
 31
0.0
  0
LINE
  8
0
 62
     0
 10
426.494
 20
15.9522
 30
0.0
 11
426.494
 21
17.479
 31
0.0
  0
LINE
  8
0
 62
     0
 10
426.494
 20
17.479
 30
0.0
 11
431.197
 21
17.479
 31
0.0
  0
LINE
  8
0
 62
     0
 10
431.197
 20
17.479
 30
0.0
 11
431.197
 21
31.4785
 31
0.0
  0
LINE
  8
0
 62
     0
 10
431.197
 20
31.4785
 30
0.0
 11
426.494
 21
31.4785
 31
0.0
  0
LINE
  8
0
 62
     0
 10
426.494
 20
31.4785
 30
0.0
 11
426.494
 21
33.004
 31
0.0
  0
LINE
  8
0
 62
     0
 10
426.494
 20
33.004
 30
0.0
 11
429.726
 21
33.004
 31
0.0
  0
LINE
  8
0
 62
     0
 10
429.726
 20
33.004
 30
0.0
 11
429.726
 21
34.7293
 31
0.0
  0
LINE
  8
0
 62
     0
 10
429.726
 20
34.7293
 30
0.0
 11
430.643
 21
34.7293
 31
0.0
  0
LINE
  8
0
 62
     0
 10
430.643
 20
34.7293
 30
0.0
 11
430.643
 21
38.0284
 31
0.0
  0
LINE
  8
0
 62
     0
 10
430.643
 20
38.0284
 30
0.0
 11
429.726
 21
38.0284
 31
0.0
  0
LINE
  8
0
 62
     0
 10
429.726
 20
38.0284
 30
0.0
 11
429.726
 21
39.7538
 31
0.0
  0
LINE
  8
0
 62
     0
 10
429.726
 20
39.7538
 30
0.0
 11
426.494
 21
39.7538
 31
0.0
  0
LINE
  8
0
 62
     0
 10
426.494
 20
39.7538
 30
0.0
 11
426.494
 21
40.579
 31
0.0
  0
LINE
  8
0
 62
     0
 10
426.494
 20
40.579
 30
0.0
 11
423.693
 21
40.579
 31
0.0
  0
LINE
  8
0
 62
     0
 10
257.651
 20
41.0034
 30
0.0
 11
257.651
 21
36.3029
 31
0.0
  0
LINE
  8
0
 62
     0
 10
257.651
 20
36.3029
 30
0.0
 11
256.125
 21
36.3029
 31
0.0
  0
LINE
  8
0
 62
     0
 10
256.125
 20
36.3029
 30
0.0
 11
256.125
 21
39.5333
 31
0.0
  0
LINE
  8
0
 62
     0
 10
256.125
 20
39.5333
 30
0.0
 11
254.4
 21
39.5333
 31
0.0
  0
LINE
  8
0
 62
     0
 10
254.4
 20
39.5333
 30
0.0
 11
254.4
 21
40.4537
 31
0.0
  0
LINE
  8
0
 62
     0
 10
254.4
 20
40.4537
 30
0.0
 11
251.099
 21
40.4537
 31
0.0
  0
LINE
  8
0
 62
     0
 10
251.099
 20
40.4537
 30
0.0
 11
251.099
 21
39.5333
 31
0.0
  0
LINE
  8
0
 62
     0
 10
251.099
 20
39.5333
 30
0.0
 11
249.375
 21
39.5333
 31
0.0
  0
LINE
  8
0
 62
     0
 10
249.375
 20
39.5333
 30
0.0
 11
249.375
 21
36.3029
 31
0.0
  0
LINE
  8
0
 62
     0
 10
249.375
 20
36.3029
 30
0.0
 11
248.55
 21
36.3029
 31
0.0
  0
LINE
  8
0
 62
     0
 10
248.55
 20
36.3029
 30
0.0
 11
248.55
 21
33.5043
 31
0.0
  0
LINE
  8
0
 62
     0
 10
248.55
 20
33.5043
 30
0.0
 11
249.375
 21
33.5043
 31
0.0
  0
LINE
  8
0
 62
     0
 10
249.375
 20
33.5043
 30
0.0
 11
249.375
 21
27.2342
 31
0.0
  0
LINE
  8
0
 62
     0
 10
249.375
 20
27.2342
 30
0.0
 11
251.099
 21
27.2342
 31
0.0
  0
LINE
  8
0
 62
     0
 10
251.099
 20
27.2342
 30
0.0
 11
251.099
 21
26.2544
 31
0.0
  0
LINE
  8
0
 62
     0
 10
251.099
 20
26.2544
 30
0.0
 11
254.4
 21
26.2544
 31
0.0
  0
LINE
  8
0
 62
     0
 10
254.4
 20
26.2544
 30
0.0
 11
254.4
 21
27.2342
 31
0.0
  0
LINE
  8
0
 62
     0
 10
254.4
 20
27.2342
 30
0.0
 11
256.125
 21
27.2342
 31
0.0
  0
LINE
  8
0
 62
     0
 10
256.125
 20
27.2342
 30
0.0
 11
256.125
 21
31.7032
 31
0.0
  0
LINE
  8
0
 62
     0
 10
256.125
 20
31.7032
 30
0.0
 11
257.651
 21
31.7032
 31
0.0
  0
LINE
  8
0
 62
     0
 10
257.651
 20
31.7032
 30
0.0
 11
257.651
 21
27.004
 31
0.0
  0
LINE
  8
0
 62
     0
 10
257.651
 20
27.004
 30
0.0
 11
271.65
 21
27.004
 31
0.0
  0
LINE
  8
0
 62
     0
 10
271.65
 20
27.004
 30
0.0
 11
271.65
 21
31.7032
 31
0.0
  0
LINE
  8
0
 62
     0
 10
271.65
 20
31.7032
 30
0.0
 11
273.175
 21
31.7032
 31
0.0
  0
LINE
  8
0
 62
     0
 10
273.175
 20
31.7032
 30
0.0
 11
273.175
 21
27.2342
 31
0.0
  0
LINE
  8
0
 62
     0
 10
273.175
 20
27.2342
 30
0.0
 11
274.901
 21
27.2342
 31
0.0
  0
LINE
  8
0
 62
     0
 10
274.901
 20
27.2342
 30
0.0
 11
274.901
 21
26.2544
 31
0.0
  0
LINE
  8
0
 62
     0
 10
274.901
 20
26.2544
 30
0.0
 11
278.201
 21
26.2544
 31
0.0
  0
LINE
  8
0
 62
     0
 10
278.201
 20
26.2544
 30
0.0
 11
278.201
 21
27.2342
 31
0.0
  0
LINE
  8
0
 62
     0
 10
278.201
 20
27.2342
 30
0.0
 11
279.925
 21
27.2342
 31
0.0
  0
LINE
  8
0
 62
     0
 10
279.925
 20
27.2342
 30
0.0
 11
279.925
 21
33.5043
 31
0.0
  0
LINE
  8
0
 62
     0
 10
279.925
 20
33.5043
 30
0.0
 11
280.75
 21
33.5043
 31
0.0
  0
LINE
  8
0
 62
     0
 10
280.75
 20
33.5043
 30
0.0
 11
280.75
 21
36.3029
 31
0.0
  0
LINE
  8
0
 62
     0
 10
280.75
 20
36.3029
 30
0.0
 11
279.925
 21
36.3029
 31
0.0
  0
LINE
  8
0
 62
     0
 10
279.925
 20
36.3029
 30
0.0
 11
279.925
 21
39.5333
 31
0.0
  0
LINE
  8
0
 62
     0
 10
279.925
 20
39.5333
 30
0.0
 11
278.201
 21
39.5333
 31
0.0
  0
LINE
  8
0
 62
     0
 10
278.201
 20
39.5333
 30
0.0
 11
278.201
 21
40.4537
 31
0.0
  0
LINE
  8
0
 62
     0
 10
278.201
 20
40.4537
 30
0.0
 11
274.901
 21
40.4537
 31
0.0
  0
LINE
  8
0
 62
     0
 10
274.901
 20
40.4537
 30
0.0
 11
274.901
 21
39.5333
 31
0.0
  0
LINE
  8
0
 62
     0
 10
274.901
 20
39.5333
 30
0.0
 11
273.175
 21
39.5333
 31
0.0
  0
LINE
  8
0
 62
     0
 10
273.175
 20
39.5333
 30
0.0
 11
273.175
 21
36.3029
 31
0.0
  0
LINE
  8
0
 62
     0
 10
273.175
 20
36.3029
 30
0.0
 11
271.65
 21
36.3029
 31
0.0
  0
LINE
  8
0
 62
     0
 10
271.65
 20
36.3029
 30
0.0
 11
271.65
 21
41.0034
 31
0.0
  0
LINE
  8
0
 62
     0
 10
271.65
 20
41.0034
 30
0.0
 11
257.651
 21
41.0034
 31
0.0
  0
LINE
  8
0
 62
     0
 10
10.0004
 20
41.0034
 30
0.0
 11
23.9999
 21
41.0034
 31
0.0
  0
LINE
  8
0
 62
     0
 10
23.9999
 20
41.0034
 30
0.0
 11
23.9999
 21
27.004
 31
0.0
  0
LINE
  8
0
 62
     0
 10
23.9999
 20
27.004
 30
0.0
 11
10.0004
 21
27.004
 31
0.0
  0
LINE
  8
0
 62
     0
 10
10.0004
 20
27.004
 30
0.0
 11
10.0004
 21
41.0034
 31
0.0
  0
LINE
  8
0
 62
     0
 10
31.4317
 20
41.0034
 30
0.0
 11
45.4311
 21
41.0034
 31
0.0
  0
LINE
  8
0
 62
     0
 10
45.4311
 20
41.0034
 30
0.0
 11
45.4311
 21
27.004
 31
0.0
  0
LINE
  8
0
 62
     0
 10
45.4311
 20
27.004
 30
0.0
 11
31.4317
 21
27.004
 31
0.0
  0
LINE
  8
0
 62
     0
 10
31.4317
 20
27.004
 30
0.0
 11
31.4317
 21
41.0034
 31
0.0
  0
LINE
  8
0
 62
     0
 10
50.4818
 20
41.0034
 30
0.0
 11
64.4811
 21
41.0034
 31
0.0
  0
LINE
  8
0
 62
     0
 10
64.4811
 20
41.0034
 30
0.0
 11
64.4811
 21
27.004
 31
0.0
  0
LINE
  8
0
 62
     0
 10
64.4811
 20
27.004
 30
0.0
 11
50.4818
 21
27.004
 31
0.0
  0
LINE
  8
0
 62
     0
 10
50.4818
 20
27.004
 30
0.0
 11
50.4818
 21
41.0034
 31
0.0
  0
LINE
  8
0
 62
     0
 10
69.5318
 20
41.0034
 30
0.0
 11
83.5311
 21
41.0034
 31
0.0
  0
LINE
  8
0
 62
     0
 10
83.5311
 20
41.0034
 30
0.0
 11
83.5311
 21
27.004
 31
0.0
  0
LINE
  8
0
 62
     0
 10
83.5311
 20
27.004
 30
0.0
 11
69.5318
 21
27.004
 31
0.0
  0
LINE
  8
0
 62
     0
 10
69.5318
 20
27.004
 30
0.0
 11
69.5318
 21
41.0034
 31
0.0
  0
LINE
  8
0
 62
     0
 10
88.5818
 20
41.0034
 30
0.0
 11
102.581
 21
41.0034
 31
0.0
  0
LINE
  8
0
 62
     0
 10
102.581
 20
41.0034
 30
0.0
 11
102.581
 21
27.004
 31
0.0
  0
LINE
  8
0
 62
     0
 10
102.581
 20
27.004
 30
0.0
 11
88.5818
 21
27.004
 31
0.0
  0
LINE
  8
0
 62
     0
 10
88.5818
 20
27.004
 30
0.0
 11
88.5818
 21
41.0034
 31
0.0
  0
LINE
  8
0
 62
     0
 10
107.632
 20
41.0034
 30
0.0
 11
121.631
 21
41.0034
 31
0.0
  0
LINE
  8
0
 62
     0
 10
121.631
 20
41.0034
 30
0.0
 11
121.631
 21
27.004
 31
0.0
  0
LINE
  8
0
 62
     0
 10
121.631
 20
27.004
 30
0.0
 11
107.632
 21
27.004
 31
0.0
  0
LINE
  8
0
 62
     0
 10
107.632
 20
27.004
 30
0.0
 11
107.632
 21
41.0034
 31
0.0
  0
LINE
  8
0
 62
     0
 10
126.682
 20
41.0034
 30
0.0
 11
140.681
 21
41.0034
 31
0.0
  0
LINE
  8
0
 62
     0
 10
140.681
 20
41.0034
 30
0.0
 11
140.681
 21
27.004
 31
0.0
  0
LINE
  8
0
 62
     0
 10
140.681
 20
27.004
 30
0.0
 11
126.682
 21
27.004
 31
0.0
  0
LINE
  8
0
 62
     0
 10
126.682
 20
27.004
 30
0.0
 11
126.682
 21
41.0034
 31
0.0
  0
LINE
  8
0
 62
     0
 10
145.732
 20
41.0034
 30
0.0
 11
159.731
 21
41.0034
 31
0.0
  0
LINE
  8
0
 62
     0
 10
159.731
 20
41.0034
 30
0.0
 11
159.731
 21
27.004
 31
0.0
  0
LINE
  8
0
 62
     0
 10
159.731
 20
27.004
 30
0.0
 11
145.732
 21
27.004
 31
0.0
  0
LINE
  8
0
 62
     0
 10
145.732
 20
27.004
 30
0.0
 11
145.732
 21
41.0034
 31
0.0
  0
LINE
  8
0
 62
     0
 10
164.782
 20
41.0034
 30
0.0
 11
178.781
 21
41.0034
 31
0.0
  0
LINE
  8
0
 62
     0
 10
178.781
 20
41.0034
 30
0.0
 11
178.781
 21
27.004
 31
0.0
  0
LINE
  8
0
 62
     0
 10
178.781
 20
27.004
 30
0.0
 11
164.782
 21
27.004
 31
0.0
  0
LINE
  8
0
 62
     0
 10
164.782
 20
27.004
 30
0.0
 11
164.782
 21
41.0034
 31
0.0
  0
LINE
  8
0
 62
     0
 10
183.832
 20
41.0034
 30
0.0
 11
197.831
 21
41.0034
 31
0.0
  0
LINE
  8
0
 62
     0
 10
197.831
 20
41.0034
 30
0.0
 11
197.831
 21
27.004
 31
0.0
  0
LINE
  8
0
 62
     0
 10
197.831
 20
27.004
 30
0.0
 11
183.832
 21
27.004
 31
0.0
  0
LINE
  8
0
 62
     0
 10
183.832
 20
27.004
 30
0.0
 11
183.832
 21
41.0034
 31
0.0
  0
LINE
  8
0
 62
     0
 10
202.882
 20
41.0034
 30
0.0
 11
216.881
 21
41.0034
 31
0.0
  0
LINE
  8
0
 62
     0
 10
216.881
 20
41.0034
 30
0.0
 11
216.881
 21
27.004
 31
0.0
  0
LINE
  8
0
 62
     0
 10
216.881
 20
27.004
 30
0.0
 11
202.882
 21
27.004
 31
0.0
  0
LINE
  8
0
 62
     0
 10
202.882
 20
27.004
 30
0.0
 11
202.882
 21
41.0034
 31
0.0
  0
LINE
  8
0
 62
     0
 10
221.932
 20
41.0034
 30
0.0
 11
235.931
 21
41.0034
 31
0.0
  0
LINE
  8
0
 62
     0
 10
235.931
 20
41.0034
 30
0.0
 11
235.931
 21
27.004
 31
0.0
  0
LINE
  8
0
 62
     0
 10
235.931
 20
27.004
 30
0.0
 11
221.932
 21
27.004
 31
0.0
  0
LINE
  8
0
 62
     0
 10
221.932
 20
27.004
 30
0.0
 11
221.932
 21
41.0034
 31
0.0
  0
LINE
  8
0
 62
     0
 10
317.182
 20
41.0034
 30
0.0
 11
331.181
 21
41.0034
 31
0.0
  0
LINE
  8
0
 62
     0
 10
331.181
 20
41.0034
 30
0.0
 11
331.181
 21
27.004
 31
0.0
  0
LINE
  8
0
 62
     0
 10
331.181
 20
27.004
 30
0.0
 11
317.182
 21
27.004
 31
0.0
  0
LINE
  8
0
 62
     0
 10
317.182
 20
27.004
 30
0.0
 11
317.182
 21
41.0034
 31
0.0
  0
LINE
  8
0
 62
     0
 10
360.045
 20
41.0034
 30
0.0
 11
374.047
 21
41.0034
 31
0.0
  0
LINE
  8
0
 62
     0
 10
374.047
 20
41.0034
 30
0.0
 11
374.047
 21
27.004
 31
0.0
  0
LINE
  8
0
 62
     0
 10
374.047
 20
27.004
 30
0.0
 11
360.045
 21
27.004
 31
0.0
  0
LINE
  8
0
 62
     0
 10
360.045
 20
27.004
 30
0.0
 11
360.045
 21
41.0034
 31
0.0
  0
LINE
  8
0
 62
     0
 10
379.095
 20
41.0034
 30
0.0
 11
393.097
 21
41.0034
 31
0.0
  0
LINE
  8
0
 62
     0
 10
393.097
 20
41.0034
 30
0.0
 11
393.097
 21
27.004
 31
0.0
  0
LINE
  8
0
 62
     0
 10
393.097
 20
27.004
 30
0.0
 11
379.095
 21
27.004
 31
0.0
  0
LINE
  8
0
 62
     0
 10
379.095
 20
27.004
 30
0.0
 11
379.095
 21
41.0034
 31
0.0
  0
LINE
  8
0
 62
     0
 10
398.145
 20
41.0034
 30
0.0
 11
412.147
 21
41.0034
 31
0.0
  0
LINE
  8
0
 62
     0
 10
412.147
 20
41.0034
 30
0.0
 11
412.147
 21
27.004
 31
0.0
  0
LINE
  8
0
 62
     0
 10
412.147
 20
27.004
 30
0.0
 11
398.145
 21
27.004
 31
0.0
  0
LINE
  8
0
 62
     0
 10
398.145
 20
27.004
 30
0.0
 11
398.145
 21
41.0034
 31
0.0
  0
LINE
  8
0
 62
     0
 10
14.7629
 20
60.0523
 30
0.0
 11
28.7624
 21
60.0523
 31
0.0
  0
LINE
  8
0
 62
     0
 10
28.7624
 20
60.0523
 30
0.0
 11
28.7624
 21
46.0527
 31
0.0
  0
LINE
  8
0
 62
     0
 10
28.7624
 20
46.0527
 30
0.0
 11
14.7629
 21
46.0527
 31
0.0
  0
LINE
  8
0
 62
     0
 10
14.7629
 20
46.0527
 30
0.0
 11
14.7629
 21
60.0523
 31
0.0
  0
LINE
  8
0
 62
     0
 10
40.9568
 20
60.0523
 30
0.0
 11
54.9561
 21
60.0523
 31
0.0
  0
LINE
  8
0
 62
     0
 10
54.9561
 20
60.0523
 30
0.0
 11
54.9561
 21
46.0527
 31
0.0
  0
LINE
  8
0
 62
     0
 10
54.9561
 20
46.0527
 30
0.0
 11
40.9568
 21
46.0527
 31
0.0
  0
LINE
  8
0
 62
     0
 10
40.9568
 20
46.0527
 30
0.0
 11
40.9568
 21
60.0523
 31
0.0
  0
LINE
  8
0
 62
     0
 10
60.0068
 20
60.0523
 30
0.0
 11
74.0061
 21
60.0523
 31
0.0
  0
LINE
  8
0
 62
     0
 10
74.0061
 20
60.0523
 30
0.0
 11
74.0061
 21
46.0527
 31
0.0
  0
LINE
  8
0
 62
     0
 10
74.0061
 20
46.0527
 30
0.0
 11
60.0068
 21
46.0527
 31
0.0
  0
LINE
  8
0
 62
     0
 10
60.0068
 20
46.0527
 30
0.0
 11
60.0068
 21
60.0523
 31
0.0
  0
LINE
  8
0
 62
     0
 10
79.0568
 20
60.0523
 30
0.0
 11
93.0561
 21
60.0523
 31
0.0
  0
LINE
  8
0
 62
     0
 10
93.0561
 20
60.0523
 30
0.0
 11
93.0561
 21
46.0527
 31
0.0
  0
LINE
  8
0
 62
     0
 10
93.0561
 20
46.0527
 30
0.0
 11
79.0568
 21
46.0527
 31
0.0
  0
LINE
  8
0
 62
     0
 10
79.0568
 20
46.0527
 30
0.0
 11
79.0568
 21
60.0523
 31
0.0
  0
LINE
  8
0
 62
     0
 10
98.1068
 20
60.0523
 30
0.0
 11
112.106
 21
60.0523
 31
0.0
  0
LINE
  8
0
 62
     0
 10
112.106
 20
60.0523
 30
0.0
 11
112.106
 21
46.0527
 31
0.0
  0
LINE
  8
0
 62
     0
 10
112.106
 20
46.0527
 30
0.0
 11
98.1068
 21
46.0527
 31
0.0
  0
LINE
  8
0
 62
     0
 10
98.1068
 20
46.0527
 30
0.0
 11
98.1068
 21
60.0523
 31
0.0
  0
LINE
  8
0
 62
     0
 10
117.157
 20
60.0523
 30
0.0
 11
131.156
 21
60.0523
 31
0.0
  0
LINE
  8
0
 62
     0
 10
131.156
 20
60.0523
 30
0.0
 11
131.156
 21
46.0527
 31
0.0
  0
LINE
  8
0
 62
     0
 10
131.156
 20
46.0527
 30
0.0
 11
117.157
 21
46.0527
 31
0.0
  0
LINE
  8
0
 62
     0
 10
117.157
 20
46.0527
 30
0.0
 11
117.157
 21
60.0523
 31
0.0
  0
LINE
  8
0
 62
     0
 10
136.207
 20
60.0523
 30
0.0
 11
150.206
 21
60.0523
 31
0.0
  0
LINE
  8
0
 62
     0
 10
150.206
 20
60.0523
 30
0.0
 11
150.206
 21
46.0527
 31
0.0
  0
LINE
  8
0
 62
     0
 10
150.206
 20
46.0527
 30
0.0
 11
136.207
 21
46.0527
 31
0.0
  0
LINE
  8
0
 62
     0
 10
136.207
 20
46.0527
 30
0.0
 11
136.207
 21
60.0523
 31
0.0
  0
LINE
  8
0
 62
     0
 10
155.257
 20
60.0523
 30
0.0
 11
169.256
 21
60.0523
 31
0.0
  0
LINE
  8
0
 62
     0
 10
169.256
 20
60.0523
 30
0.0
 11
169.256
 21
46.0527
 31
0.0
  0
LINE
  8
0
 62
     0
 10
169.256
 20
46.0527
 30
0.0
 11
155.257
 21
46.0527
 31
0.0
  0
LINE
  8
0
 62
     0
 10
155.257
 20
46.0527
 30
0.0
 11
155.257
 21
60.0523
 31
0.0
  0
LINE
  8
0
 62
     0
 10
174.307
 20
60.0523
 30
0.0
 11
188.306
 21
60.0523
 31
0.0
  0
LINE
  8
0
 62
     0
 10
188.306
 20
60.0523
 30
0.0
 11
188.306
 21
46.0527
 31
0.0
  0
LINE
  8
0
 62
     0
 10
188.306
 20
46.0527
 30
0.0
 11
174.307
 21
46.0527
 31
0.0
  0
LINE
  8
0
 62
     0
 10
174.307
 20
46.0527
 30
0.0
 11
174.307
 21
60.0523
 31
0.0
  0
LINE
  8
0
 62
     0
 10
193.357
 20
60.0523
 30
0.0
 11
207.356
 21
60.0523
 31
0.0
  0
LINE
  8
0
 62
     0
 10
207.356
 20
60.0523
 30
0.0
 11
207.356
 21
46.0527
 31
0.0
  0
LINE
  8
0
 62
     0
 10
207.356
 20
46.0527
 30
0.0
 11
193.357
 21
46.0527
 31
0.0
  0
LINE
  8
0
 62
     0
 10
193.357
 20
46.0527
 30
0.0
 11
193.357
 21
60.0523
 31
0.0
  0
LINE
  8
0
 62
     0
 10
212.407
 20
60.0523
 30
0.0
 11
226.406
 21
60.0523
 31
0.0
  0
LINE
  8
0
 62
     0
 10
226.406
 20
60.0523
 30
0.0
 11
226.406
 21
46.0527
 31
0.0
  0
LINE
  8
0
 62
     0
 10
226.406
 20
46.0527
 30
0.0
 11
212.407
 21
46.0527
 31
0.0
  0
LINE
  8
0
 62
     0
 10
212.407
 20
46.0527
 30
0.0
 11
212.407
 21
60.0523
 31
0.0
  0
LINE
  8
0
 62
     0
 10
231.457
 20
60.0523
 30
0.0
 11
245.456
 21
60.0523
 31
0.0
  0
LINE
  8
0
 62
     0
 10
245.456
 20
60.0523
 30
0.0
 11
245.456
 21
46.0527
 31
0.0
  0
LINE
  8
0
 62
     0
 10
245.456
 20
46.0527
 30
0.0
 11
231.457
 21
46.0527
 31
0.0
  0
LINE
  8
0
 62
     0
 10
231.457
 20
46.0527
 30
0.0
 11
231.457
 21
60.0523
 31
0.0
  0
LINE
  8
0
 62
     0
 10
250.507
 20
60.0523
 30
0.0
 11
264.506
 21
60.0523
 31
0.0
  0
LINE
  8
0
 62
     0
 10
264.506
 20
60.0523
 30
0.0
 11
264.506
 21
46.0527
 31
0.0
  0
LINE
  8
0
 62
     0
 10
264.506
 20
46.0527
 30
0.0
 11
250.507
 21
46.0527
 31
0.0
  0
LINE
  8
0
 62
     0
 10
250.507
 20
46.0527
 30
0.0
 11
250.507
 21
60.0523
 31
0.0
  0
LINE
  8
0
 62
     0
 10
360.045
 20
60.0523
 30
0.0
 11
374.047
 21
60.0523
 31
0.0
  0
LINE
  8
0
 62
     0
 10
374.047
 20
60.0523
 30
0.0
 11
374.047
 21
46.0527
 31
0.0
  0
LINE
  8
0
 62
     0
 10
374.047
 20
46.0527
 30
0.0
 11
360.045
 21
46.0527
 31
0.0
  0
LINE
  8
0
 62
     0
 10
360.045
 20
46.0527
 30
0.0
 11
360.045
 21
60.0523
 31
0.0
  0
LINE
  8
0
 62
     0
 10
379.095
 20
60.0523
 30
0.0
 11
393.097
 21
60.0523
 31
0.0
  0
LINE
  8
0
 62
     0
 10
393.097
 20
60.0523
 30
0.0
 11
393.097
 21
46.0527
 31
0.0
  0
LINE
  8
0
 62
     0
 10
393.097
 20
46.0527
 30
0.0
 11
379.095
 21
46.0527
 31
0.0
  0
LINE
  8
0
 62
     0
 10
379.095
 20
46.0527
 30
0.0
 11
379.095
 21
60.0523
 31
0.0
  0
LINE
  8
0
 62
     0
 10
398.145
 20
60.0523
 30
0.0
 11
412.147
 21
60.0523
 31
0.0
  0
LINE
  8
0
 62
     0
 10
412.147
 20
60.0523
 30
0.0
 11
412.147
 21
46.0527
 31
0.0
  0
LINE
  8
0
 62
     0
 10
412.147
 20
46.0527
 30
0.0
 11
398.145
 21
46.0527
 31
0.0
  0
LINE
  8
0
 62
     0
 10
398.145
 20
46.0527
 30
0.0
 11
398.145
 21
60.0523
 31
0.0
  0
LINE
  8
0
 62
     0
 10
278.438
 20
78.6776
 30
0.0
 11
278.438
 21
77.8524
 31
0.0
  0
LINE
  8
0
 62
     0
 10
278.438
 20
77.8524
 30
0.0
 11
272.168
 21
77.8524
 31
0.0
  0
LINE
  8
0
 62
     0
 10
272.168
 20
77.8524
 30
0.0
 11
272.168
 21
76.1284
 31
0.0
  0
LINE
  8
0
 62
     0
 10
272.168
 20
76.1284
 30
0.0
 11
271.187
 21
76.1284
 31
0.0
  0
LINE
  8
0
 62
     0
 10
271.187
 20
76.1284
 30
0.0
 11
271.187
 21
72.8278
 31
0.0
  0
LINE
  8
0
 62
     0
 10
271.187
 20
72.8278
 30
0.0
 11
272.168
 21
72.8278
 31
0.0
  0
LINE
  8
0
 62
     0
 10
272.168
 20
72.8278
 30
0.0
 11
272.168
 21
71.1027
 31
0.0
  0
LINE
  8
0
 62
     0
 10
272.168
 20
71.1027
 30
0.0
 11
276.637
 21
71.1027
 31
0.0
  0
LINE
  8
0
 62
     0
 10
276.637
 20
71.1027
 30
0.0
 11
276.637
 21
69.5773
 31
0.0
  0
LINE
  8
0
 62
     0
 10
276.637
 20
69.5773
 30
0.0
 11
271.938
 21
69.5773
 31
0.0
  0
LINE
  8
0
 62
     0
 10
271.938
 20
69.5773
 30
0.0
 11
271.938
 21
55.5777
 31
0.0
  0
LINE
  8
0
 62
     0
 10
271.938
 20
55.5777
 30
0.0
 11
276.637
 21
55.5777
 31
0.0
  0
LINE
  8
0
 62
     0
 10
276.637
 20
55.5777
 30
0.0
 11
276.637
 21
54.0523
 31
0.0
  0
LINE
  8
0
 62
     0
 10
276.637
 20
54.0523
 30
0.0
 11
272.168
 21
54.0523
 31
0.0
  0
LINE
  8
0
 62
     0
 10
272.168
 20
54.0523
 30
0.0
 11
272.168
 21
52.3282
 31
0.0
  0
LINE
  8
0
 62
     0
 10
272.168
 20
52.3282
 30
0.0
 11
271.187
 21
52.3282
 31
0.0
  0
LINE
  8
0
 62
     0
 10
271.187
 20
52.3282
 30
0.0
 11
271.187
 21
49.028
 31
0.0
  0
LINE
  8
0
 62
     0
 10
271.187
 20
49.028
 30
0.0
 11
272.168
 21
49.028
 31
0.0
  0
LINE
  8
0
 62
     0
 10
272.168
 20
49.028
 30
0.0
 11
272.168
 21
47.3026
 31
0.0
  0
LINE
  8
0
 62
     0
 10
272.168
 20
47.3026
 30
0.0
 11
278.438
 21
47.3026
 31
0.0
  0
LINE
  8
0
 62
     0
 10
278.438
 20
47.3026
 30
0.0
 11
278.438
 21
46.4771
 31
0.0
  0
LINE
  8
0
 62
     0
 10
278.438
 20
46.4771
 30
0.0
 11
281.237
 21
46.4771
 31
0.0
  0
LINE
  8
0
 62
     0
 10
281.237
 20
46.4771
 30
0.0
 11
281.237
 21
47.3026
 31
0.0
  0
LINE
  8
0
 62
     0
 10
281.237
 20
47.3026
 30
0.0
 11
284.467
 21
47.3026
 31
0.0
  0
LINE
  8
0
 62
     0
 10
284.467
 20
47.3026
 30
0.0
 11
284.467
 21
49.028
 31
0.0
  0
LINE
  8
0
 62
     0
 10
284.467
 20
49.028
 30
0.0
 11
285.388
 21
49.028
 31
0.0
  0
LINE
  8
0
 62
     0
 10
285.388
 20
49.028
 30
0.0
 11
285.388
 21
52.3282
 31
0.0
  0
LINE
  8
0
 62
     0
 10
285.388
 20
52.3282
 30
0.0
 11
284.467
 21
52.3282
 31
0.0
  0
LINE
  8
0
 62
     0
 10
284.467
 20
52.3282
 30
0.0
 11
284.467
 21
54.0523
 31
0.0
  0
LINE
  8
0
 62
     0
 10
284.467
 20
54.0523
 30
0.0
 11
281.237
 21
54.0523
 31
0.0
  0
LINE
  8
0
 62
     0
 10
281.237
 20
54.0523
 30
0.0
 11
281.237
 21
55.5777
 31
0.0
  0
LINE
  8
0
 62
     0
 10
281.237
 20
55.5777
 30
0.0
 11
285.937
 21
55.5777
 31
0.0
  0
LINE
  8
0
 62
     0
 10
285.937
 20
55.5777
 30
0.0
 11
285.937
 21
69.5773
 31
0.0
  0
LINE
  8
0
 62
     0
 10
285.937
 20
69.5773
 30
0.0
 11
281.237
 21
69.5773
 31
0.0
  0
LINE
  8
0
 62
     0
 10
281.237
 20
69.5773
 30
0.0
 11
281.237
 21
71.1027
 31
0.0
  0
LINE
  8
0
 62
     0
 10
281.237
 20
71.1027
 30
0.0
 11
284.467
 21
71.1027
 31
0.0
  0
LINE
  8
0
 62
     0
 10
284.467
 20
71.1027
 30
0.0
 11
284.467
 21
72.8278
 31
0.0
  0
LINE
  8
0
 62
     0
 10
284.467
 20
72.8278
 30
0.0
 11
285.388
 21
72.8278
 31
0.0
  0
LINE
  8
0
 62
     0
 10
285.388
 20
72.8278
 30
0.0
 11
285.388
 21
76.1284
 31
0.0
  0
LINE
  8
0
 62
     0
 10
285.388
 20
76.1284
 30
0.0
 11
284.467
 21
76.1284
 31
0.0
  0
LINE
  8
0
 62
     0
 10
284.467
 20
76.1284
 30
0.0
 11
284.467
 21
77.8524
 31
0.0
  0
LINE
  8
0
 62
     0
 10
284.467
 20
77.8524
 30
0.0
 11
281.237
 21
77.8524
 31
0.0
  0
LINE
  8
0
 62
     0
 10
281.237
 20
77.8524
 30
0.0
 11
281.237
 21
78.6776
 31
0.0
  0
LINE
  8
0
 62
     0
 10
281.237
 20
78.6776
 30
0.0
 11
278.438
 21
78.6776
 31
0.0
  0
LINE
  8
0
 62
     0
 10
423.693
 20
78.6776
 30
0.0
 11
423.693
 21
77.8524
 31
0.0
  0
LINE
  8
0
 62
     0
 10
423.693
 20
77.8524
 30
0.0
 11
417.424
 21
77.8524
 31
0.0
  0
LINE
  8
0
 62
     0
 10
417.424
 20
77.8524
 30
0.0
 11
417.424
 21
76.1284
 31
0.0
  0
LINE
  8
0
 62
     0
 10
417.424
 20
76.1284
 30
0.0
 11
416.444
 21
76.1284
 31
0.0
  0
LINE
  8
0
 62
     0
 10
416.444
 20
76.1284
 30
0.0
 11
416.444
 21
72.8278
 31
0.0
  0
LINE
  8
0
 62
     0
 10
416.444
 20
72.8278
 30
0.0
 11
417.424
 21
72.8278
 31
0.0
  0
LINE
  8
0
 62
     0
 10
417.424
 20
72.8278
 30
0.0
 11
417.424
 21
71.1027
 31
0.0
  0
LINE
  8
0
 62
     0
 10
417.424
 20
71.1027
 30
0.0
 11
421.894
 21
71.1027
 31
0.0
  0
LINE
  8
0
 62
     0
 10
421.894
 20
71.1027
 30
0.0
 11
421.894
 21
69.5773
 31
0.0
  0
LINE
  8
0
 62
     0
 10
421.894
 20
69.5773
 30
0.0
 11
417.195
 21
69.5773
 31
0.0
  0
LINE
  8
0
 62
     0
 10
417.195
 20
69.5773
 30
0.0
 11
417.195
 21
55.5777
 31
0.0
  0
LINE
  8
0
 62
     0
 10
417.195
 20
55.5777
 30
0.0
 11
421.894
 21
55.5777
 31
0.0
  0
LINE
  8
0
 62
     0
 10
421.894
 20
55.5777
 30
0.0
 11
421.894
 21
54.0523
 31
0.0
  0
LINE
  8
0
 62
     0
 10
421.894
 20
54.0523
 30
0.0
 11
417.424
 21
54.0523
 31
0.0
  0
LINE
  8
0
 62
     0
 10
417.424
 20
54.0523
 30
0.0
 11
417.424
 21
52.3282
 31
0.0
  0
LINE
  8
0
 62
     0
 10
417.424
 20
52.3282
 30
0.0
 11
416.444
 21
52.3282
 31
0.0
  0
LINE
  8
0
 62
     0
 10
416.444
 20
52.3282
 30
0.0
 11
416.444
 21
49.028
 31
0.0
  0
LINE
  8
0
 62
     0
 10
416.444
 20
49.028
 30
0.0
 11
417.424
 21
49.028
 31
0.0
  0
LINE
  8
0
 62
     0
 10
417.424
 20
49.028
 30
0.0
 11
417.424
 21
47.3026
 31
0.0
  0
LINE
  8
0
 62
     0
 10
417.424
 20
47.3026
 30
0.0
 11
423.693
 21
47.3026
 31
0.0
  0
LINE
  8
0
 62
     0
 10
423.693
 20
47.3026
 30
0.0
 11
423.693
 21
46.4771
 31
0.0
  0
LINE
  8
0
 62
     0
 10
423.693
 20
46.4771
 30
0.0
 11
426.494
 21
46.4771
 31
0.0
  0
LINE
  8
0
 62
     0
 10
426.494
 20
46.4771
 30
0.0
 11
426.494
 21
47.3026
 31
0.0
  0
LINE
  8
0
 62
     0
 10
426.494
 20
47.3026
 30
0.0
 11
429.726
 21
47.3026
 31
0.0
  0
LINE
  8
0
 62
     0
 10
429.726
 20
47.3026
 30
0.0
 11
429.726
 21
49.028
 31
0.0
  0
LINE
  8
0
 62
     0
 10
429.726
 20
49.028
 30
0.0
 11
430.643
 21
49.028
 31
0.0
  0
LINE
  8
0
 62
     0
 10
430.643
 20
49.028
 30
0.0
 11
430.643
 21
52.3282
 31
0.0
  0
LINE
  8
0
 62
     0
 10
430.643
 20
52.3282
 30
0.0
 11
429.726
 21
52.3282
 31
0.0
  0
LINE
  8
0
 62
     0
 10
429.726
 20
52.3282
 30
0.0
 11
429.726
 21
54.0523
 31
0.0
  0
LINE
  8
0
 62
     0
 10
429.726
 20
54.0523
 30
0.0
 11
426.494
 21
54.0523
 31
0.0
  0
LINE
  8
0
 62
     0
 10
426.494
 20
54.0523
 30
0.0
 11
426.494
 21
55.5777
 31
0.0
  0
LINE
  8
0
 62
     0
 10
426.494
 20
55.5777
 30
0.0
 11
431.197
 21
55.5777
 31
0.0
  0
LINE
  8
0
 62
     0
 10
431.197
 20
55.5777
 30
0.0
 11
431.197
 21
69.5773
 31
0.0
  0
LINE
  8
0
 62
     0
 10
431.197
 20
69.5773
 30
0.0
 11
426.494
 21
69.5773
 31
0.0
  0
LINE
  8
0
 62
     0
 10
426.494
 20
69.5773
 30
0.0
 11
426.494
 21
71.1027
 31
0.0
  0
LINE
  8
0
 62
     0
 10
426.494
 20
71.1027
 30
0.0
 11
429.726
 21
71.1027
 31
0.0
  0
LINE
  8
0
 62
     0
 10
429.726
 20
71.1027
 30
0.0
 11
429.726
 21
72.8278
 31
0.0
  0
LINE
  8
0
 62
     0
 10
429.726
 20
72.8278
 30
0.0
 11
430.643
 21
72.8278
 31
0.0
  0
LINE
  8
0
 62
     0
 10
430.643
 20
72.8278
 30
0.0
 11
430.643
 21
76.1284
 31
0.0
  0
LINE
  8
0
 62
     0
 10
430.643
 20
76.1284
 30
0.0
 11
429.726
 21
76.1284
 31
0.0
  0
LINE
  8
0
 62
     0
 10
429.726
 20
76.1284
 30
0.0
 11
429.726
 21
77.8524
 31
0.0
  0
LINE
  8
0
 62
     0
 10
429.726
 20
77.8524
 30
0.0
 11
426.494
 21
77.8524
 31
0.0
  0
LINE
  8
0
 62
     0
 10
426.494
 20
77.8524
 30
0.0
 11
426.494
 21
78.6776
 31
0.0
  0
LINE
  8
0
 62
     0
 10
426.494
 20
78.6776
 30
0.0
 11
423.693
 21
78.6776
 31
0.0
  0
LINE
  8
0
 62
     0
 10
12.3817
 20
79.1023
 30
0.0
 11
26.3812
 21
79.1023
 31
0.0
  0
LINE
  8
0
 62
     0
 10
26.3812
 20
79.1023
 30
0.0
 11
26.3812
 21
65.1027
 31
0.0
  0
LINE
  8
0
 62
     0
 10
26.3812
 20
65.1027
 30
0.0
 11
12.3817
 21
65.1027
 31
0.0
  0
LINE
  8
0
 62
     0
 10
12.3817
 20
65.1027
 30
0.0
 11
12.3817
 21
79.1023
 31
0.0
  0
LINE
  8
0
 62
     0
 10
36.1943
 20
79.1023
 30
0.0
 11
50.195
 21
79.1023
 31
0.0
  0
LINE
  8
0
 62
     0
 10
50.195
 20
79.1023
 30
0.0
 11
50.195
 21
65.1027
 31
0.0
  0
LINE
  8
0
 62
     0
 10
50.195
 20
65.1027
 30
0.0
 11
36.1943
 21
65.1027
 31
0.0
  0
LINE
  8
0
 62
     0
 10
36.1943
 20
65.1027
 30
0.0
 11
36.1943
 21
79.1023
 31
0.0
  0
LINE
  8
0
 62
     0
 10
55.2443
 20
79.1023
 30
0.0
 11
69.245
 21
79.1023
 31
0.0
  0
LINE
  8
0
 62
     0
 10
69.245
 20
79.1023
 30
0.0
 11
69.245
 21
65.1027
 31
0.0
  0
LINE
  8
0
 62
     0
 10
69.245
 20
65.1027
 30
0.0
 11
55.2443
 21
65.1027
 31
0.0
  0
LINE
  8
0
 62
     0
 10
55.2443
 20
65.1027
 30
0.0
 11
55.2443
 21
79.1023
 31
0.0
  0
LINE
  8
0
 62
     0
 10
74.2943
 20
79.1023
 30
0.0
 11
88.295
 21
79.1023
 31
0.0
  0
LINE
  8
0
 62
     0
 10
88.295
 20
79.1023
 30
0.0
 11
88.295
 21
65.1027
 31
0.0
  0
LINE
  8
0
 62
     0
 10
88.295
 20
65.1027
 30
0.0
 11
74.2943
 21
65.1027
 31
0.0
  0
LINE
  8
0
 62
     0
 10
74.2943
 20
65.1027
 30
0.0
 11
74.2943
 21
79.1023
 31
0.0
  0
LINE
  8
0
 62
     0
 10
93.3443
 20
79.1023
 30
0.0
 11
107.345
 21
79.1023
 31
0.0
  0
LINE
  8
0
 62
     0
 10
107.345
 20
79.1023
 30
0.0
 11
107.345
 21
65.1027
 31
0.0
  0
LINE
  8
0
 62
     0
 10
107.345
 20
65.1027
 30
0.0
 11
93.3443
 21
65.1027
 31
0.0
  0
LINE
  8
0
 62
     0
 10
93.3443
 20
65.1027
 30
0.0
 11
93.3443
 21
79.1023
 31
0.0
  0
LINE
  8
0
 62
     0
 10
112.394
 20
79.1023
 30
0.0
 11
126.395
 21
79.1023
 31
0.0
  0
LINE
  8
0
 62
     0
 10
126.395
 20
79.1023
 30
0.0
 11
126.395
 21
65.1027
 31
0.0
  0
LINE
  8
0
 62
     0
 10
126.395
 20
65.1027
 30
0.0
 11
112.394
 21
65.1027
 31
0.0
  0
LINE
  8
0
 62
     0
 10
112.394
 20
65.1027
 30
0.0
 11
112.394
 21
79.1023
 31
0.0
  0
LINE
  8
0
 62
     0
 10
131.444
 20
79.1023
 30
0.0
 11
145.445
 21
79.1023
 31
0.0
  0
LINE
  8
0
 62
     0
 10
145.445
 20
79.1023
 30
0.0
 11
145.445
 21
65.1027
 31
0.0
  0
LINE
  8
0
 62
     0
 10
145.445
 20
65.1027
 30
0.0
 11
131.444
 21
65.1027
 31
0.0
  0
LINE
  8
0
 62
     0
 10
131.444
 20
65.1027
 30
0.0
 11
131.444
 21
79.1023
 31
0.0
  0
LINE
  8
0
 62
     0
 10
150.494
 20
79.1023
 30
0.0
 11
164.495
 21
79.1023
 31
0.0
  0
LINE
  8
0
 62
     0
 10
164.495
 20
79.1023
 30
0.0
 11
164.495
 21
65.1027
 31
0.0
  0
LINE
  8
0
 62
     0
 10
164.495
 20
65.1027
 30
0.0
 11
150.494
 21
65.1027
 31
0.0
  0
LINE
  8
0
 62
     0
 10
150.494
 20
65.1027
 30
0.0
 11
150.494
 21
79.1023
 31
0.0
  0
LINE
  8
0
 62
     0
 10
169.544
 20
79.1023
 30
0.0
 11
183.545
 21
79.1023
 31
0.0
  0
LINE
  8
0
 62
     0
 10
183.545
 20
79.1023
 30
0.0
 11
183.545
 21
65.1027
 31
0.0
  0
LINE
  8
0
 62
     0
 10
183.545
 20
65.1027
 30
0.0
 11
169.544
 21
65.1027
 31
0.0
  0
LINE
  8
0
 62
     0
 10
169.544
 20
65.1027
 30
0.0
 11
169.544
 21
79.1023
 31
0.0
  0
LINE
  8
0
 62
     0
 10
188.594
 20
79.1023
 30
0.0
 11
202.595
 21
79.1023
 31
0.0
  0
LINE
  8
0
 62
     0
 10
202.595
 20
79.1023
 30
0.0
 11
202.595
 21
65.1027
 31
0.0
  0
LINE
  8
0
 62
     0
 10
202.595
 20
65.1027
 30
0.0
 11
188.594
 21
65.1027
 31
0.0
  0
LINE
  8
0
 62
     0
 10
188.594
 20
65.1027
 30
0.0
 11
188.594
 21
79.1023
 31
0.0
  0
LINE
  8
0
 62
     0
 10
207.644
 20
79.1023
 30
0.0
 11
221.645
 21
79.1023
 31
0.0
  0
LINE
  8
0
 62
     0
 10
221.645
 20
79.1023
 30
0.0
 11
221.645
 21
65.1027
 31
0.0
  0
LINE
  8
0
 62
     0
 10
221.645
 20
65.1027
 30
0.0
 11
207.644
 21
65.1027
 31
0.0
  0
LINE
  8
0
 62
     0
 10
207.644
 20
65.1027
 30
0.0
 11
207.644
 21
79.1023
 31
0.0
  0
LINE
  8
0
 62
     0
 10
226.694
 20
79.1023
 30
0.0
 11
240.695
 21
79.1023
 31
0.0
  0
LINE
  8
0
 62
     0
 10
240.695
 20
79.1023
 30
0.0
 11
240.695
 21
65.1027
 31
0.0
  0
LINE
  8
0
 62
     0
 10
240.695
 20
65.1027
 30
0.0
 11
226.694
 21
65.1027
 31
0.0
  0
LINE
  8
0
 62
     0
 10
226.694
 20
65.1027
 30
0.0
 11
226.694
 21
79.1023
 31
0.0
  0
LINE
  8
0
 62
     0
 10
245.744
 20
79.1023
 30
0.0
 11
259.745
 21
79.1023
 31
0.0
  0
LINE
  8
0
 62
     0
 10
259.745
 20
79.1023
 30
0.0
 11
259.745
 21
65.1027
 31
0.0
  0
LINE
  8
0
 62
     0
 10
259.745
 20
65.1027
 30
0.0
 11
245.744
 21
65.1027
 31
0.0
  0
LINE
  8
0
 62
     0
 10
245.744
 20
65.1027
 30
0.0
 11
245.744
 21
79.1023
 31
0.0
  0
LINE
  8
0
 62
     0
 10
298.132
 20
79.1023
 30
0.0
 11
312.131
 21
79.1023
 31
0.0
  0
LINE
  8
0
 62
     0
 10
312.131
 20
79.1023
 30
0.0
 11
312.131
 21
65.1027
 31
0.0
  0
LINE
  8
0
 62
     0
 10
312.131
 20
65.1027
 30
0.0
 11
298.132
 21
65.1027
 31
0.0
  0
LINE
  8
0
 62
     0
 10
298.132
 20
65.1027
 30
0.0
 11
298.132
 21
79.1023
 31
0.0
  0
LINE
  8
0
 62
     0
 10
317.182
 20
79.1023
 30
0.0
 11
331.181
 21
79.1023
 31
0.0
  0
LINE
  8
0
 62
     0
 10
331.181
 20
79.1023
 30
0.0
 11
331.181
 21
65.1027
 31
0.0
  0
LINE
  8
0
 62
     0
 10
331.181
 20
65.1027
 30
0.0
 11
317.182
 21
65.1027
 31
0.0
  0
LINE
  8
0
 62
     0
 10
317.182
 20
65.1027
 30
0.0
 11
317.182
 21
79.1023
 31
0.0
  0
LINE
  8
0
 62
     0
 10
336.232
 20
79.1023
 30
0.0
 11
350.231
 21
79.1023
 31
0.0
  0
LINE
  8
0
 62
     0
 10
350.231
 20
79.1023
 30
0.0
 11
350.231
 21
65.1027
 31
0.0
  0
LINE
  8
0
 62
     0
 10
350.231
 20
65.1027
 30
0.0
 11
336.232
 21
65.1027
 31
0.0
  0
LINE
  8
0
 62
     0
 10
336.232
 20
65.1027
 30
0.0
 11
336.232
 21
79.1023
 31
0.0
  0
LINE
  8
0
 62
     0
 10
360.045
 20
79.1023
 30
0.0
 11
374.047
 21
79.1023
 31
0.0
  0
LINE
  8
0
 62
     0
 10
374.047
 20
79.1023
 30
0.0
 11
374.047
 21
65.1027
 31
0.0
  0
LINE
  8
0
 62
     0
 10
374.047
 20
65.1027
 30
0.0
 11
360.045
 21
65.1027
 31
0.0
  0
LINE
  8
0
 62
     0
 10
360.045
 20
65.1027
 30
0.0
 11
360.045
 21
79.1023
 31
0.0
  0
LINE
  8
0
 62
     0
 10
379.095
 20
79.1023
 30
0.0
 11
393.097
 21
79.1023
 31
0.0
  0
LINE
  8
0
 62
     0
 10
393.097
 20
79.1023
 30
0.0
 11
393.097
 21
65.1027
 31
0.0
  0
LINE
  8
0
 62
     0
 10
393.097
 20
65.1027
 30
0.0
 11
379.095
 21
65.1027
 31
0.0
  0
LINE
  8
0
 62
     0
 10
379.095
 20
65.1027
 30
0.0
 11
379.095
 21
79.1023
 31
0.0
  0
LINE
  8
0
 62
     0
 10
398.145
 20
79.1023
 30
0.0
 11
412.147
 21
79.1023
 31
0.0
  0
LINE
  8
0
 62
     0
 10
412.147
 20
79.1023
 30
0.0
 11
412.147
 21
65.1027
 31
0.0
  0
LINE
  8
0
 62
     0
 10
412.147
 20
65.1027
 30
0.0
 11
398.145
 21
65.1027
 31
0.0
  0
LINE
  8
0
 62
     0
 10
398.145
 20
65.1027
 30
0.0
 11
398.145
 21
79.1023
 31
0.0
  0
LINE
  8
0
 62
     0
 10
264.794
 20
98.1523
 30
0.0
 11
264.794
 21
93.453
 31
0.0
  0
LINE
  8
0
 62
     0
 10
264.794
 20
93.453
 30
0.0
 11
263.27
 21
93.453
 31
0.0
  0
LINE
  8
0
 62
     0
 10
263.27
 20
93.453
 30
0.0
 11
263.27
 21
96.6833
 31
0.0
  0
LINE
  8
0
 62
     0
 10
263.27
 20
96.6833
 30
0.0
 11
261.545
 21
96.6833
 31
0.0
  0
LINE
  8
0
 62
     0
 10
261.545
 20
96.6833
 30
0.0
 11
261.545
 21
97.6023
 31
0.0
  0
LINE
  8
0
 62
     0
 10
261.545
 20
97.6023
 30
0.0
 11
258.244
 21
97.6023
 31
0.0
  0
LINE
  8
0
 62
     0
 10
258.244
 20
97.6023
 30
0.0
 11
258.244
 21
96.6833
 31
0.0
  0
LINE
  8
0
 62
     0
 10
258.244
 20
96.6833
 30
0.0
 11
256.519
 21
96.6833
 31
0.0
  0
LINE
  8
0
 62
     0
 10
256.519
 20
96.6833
 30
0.0
 11
256.519
 21
93.453
 31
0.0
  0
LINE
  8
0
 62
     0
 10
256.519
 20
93.453
 30
0.0
 11
255.695
 21
93.453
 31
0.0
  0
LINE
  8
0
 62
     0
 10
255.695
 20
93.453
 30
0.0
 11
255.695
 21
90.653
 31
0.0
  0
LINE
  8
0
 62
     0
 10
255.695
 20
90.653
 30
0.0
 11
256.519
 21
90.653
 31
0.0
  0
LINE
  8
0
 62
     0
 10
256.519
 20
90.653
 30
0.0
 11
256.519
 21
84.3827
 31
0.0
  0
LINE
  8
0
 62
     0
 10
256.519
 20
84.3827
 30
0.0
 11
258.244
 21
84.3827
 31
0.0
  0
LINE
  8
0
 62
     0
 10
258.244
 20
84.3827
 30
0.0
 11
258.244
 21
83.403
 31
0.0
  0
LINE
  8
0
 62
     0
 10
258.244
 20
83.403
 30
0.0
 11
261.545
 21
83.403
 31
0.0
  0
LINE
  8
0
 62
     0
 10
261.545
 20
83.403
 30
0.0
 11
261.545
 21
84.3827
 31
0.0
  0
LINE
  8
0
 62
     0
 10
261.545
 20
84.3827
 30
0.0
 11
263.27
 21
84.3827
 31
0.0
  0
LINE
  8
0
 62
     0
 10
263.27
 20
84.3827
 30
0.0
 11
263.27
 21
88.8531
 31
0.0
  0
LINE
  8
0
 62
     0
 10
263.27
 20
88.8531
 30
0.0
 11
264.794
 21
88.8531
 31
0.0
  0
LINE
  8
0
 62
     0
 10
264.794
 20
88.8531
 30
0.0
 11
264.794
 21
84.1527
 31
0.0
  0
LINE
  8
0
 62
     0
 10
264.794
 20
84.1527
 30
0.0
 11
278.795
 21
84.1527
 31
0.0
  0
LINE
  8
0
 62
     0
 10
278.795
 20
84.1527
 30
0.0
 11
278.795
 21
88.8531
 31
0.0
  0
LINE
  8
0
 62
     0
 10
278.795
 20
88.8531
 30
0.0
 11
280.319
 21
88.8531
 31
0.0
  0
LINE
  8
0
 62
     0
 10
280.319
 20
88.8531
 30
0.0
 11
280.319
 21
84.3827
 31
0.0
  0
LINE
  8
0
 62
     0
 10
280.319
 20
84.3827
 30
0.0
 11
282.044
 21
84.3827
 31
0.0
  0
LINE
  8
0
 62
     0
 10
282.044
 20
84.3827
 30
0.0
 11
282.044
 21
83.403
 31
0.0
  0
LINE
  8
0
 62
     0
 10
282.044
 20
83.403
 30
0.0
 11
285.345
 21
83.403
 31
0.0
  0
LINE
  8
0
 62
     0
 10
285.345
 20
83.403
 30
0.0
 11
285.345
 21
84.3827
 31
0.0
  0
LINE
  8
0
 62
     0
 10
285.345
 20
84.3827
 30
0.0
 11
287.07
 21
84.3827
 31
0.0
  0
LINE
  8
0
 62
     0
 10
287.07
 20
84.3827
 30
0.0
 11
287.07
 21
90.653
 31
0.0
  0
LINE
  8
0
 62
     0
 10
287.07
 20
90.653
 30
0.0
 11
287.894
 21
90.653
 31
0.0
  0
LINE
  8
0
 62
     0
 10
287.894
 20
90.653
 30
0.0
 11
287.894
 21
93.453
 31
0.0
  0
LINE
  8
0
 62
     0
 10
287.894
 20
93.453
 30
0.0
 11
287.07
 21
93.453
 31
0.0
  0
LINE
  8
0
 62
     0
 10
287.07
 20
93.453
 30
0.0
 11
287.07
 21
96.6833
 31
0.0
  0
LINE
  8
0
 62
     0
 10
287.07
 20
96.6833
 30
0.0
 11
285.345
 21
96.6833
 31
0.0
  0
LINE
  8
0
 62
     0
 10
285.345
 20
96.6833
 30
0.0
 11
285.345
 21
97.6023
 31
0.0
  0
LINE
  8
0
 62
     0
 10
285.345
 20
97.6023
 30
0.0
 11
282.044
 21
97.6023
 31
0.0
  0
LINE
  8
0
 62
     0
 10
282.044
 20
97.6023
 30
0.0
 11
282.044
 21
96.6833
 31
0.0
  0
LINE
  8
0
 62
     0
 10
282.044
 20
96.6833
 30
0.0
 11
280.319
 21
96.6833
 31
0.0
  0
LINE
  8
0
 62
     0
 10
280.319
 20
96.6833
 30
0.0
 11
280.319
 21
93.453
 31
0.0
  0
LINE
  8
0
 62
     0
 10
280.319
 20
93.453
 30
0.0
 11
278.795
 21
93.453
 31
0.0
  0
LINE
  8
0
 62
     0
 10
278.795
 20
93.453
 30
0.0
 11
278.795
 21
98.1523
 31
0.0
  0
LINE
  8
0
 62
     0
 10
278.795
 20
98.1523
 30
0.0
 11
264.794
 21
98.1523
 31
0.0
  0
LINE
  8
0
 62
     0
 10
7.61919
 20
98.1523
 30
0.0
 11
21.6201
 21
98.1523
 31
0.0
  0
LINE
  8
0
 62
     0
 10
21.6201
 20
98.1523
 30
0.0
 11
21.6201
 21
84.1527
 31
0.0
  0
LINE
  8
0
 62
     0
 10
21.6201
 20
84.1527
 30
0.0
 11
7.61919
 21
84.1527
 31
0.0
  0
LINE
  8
0
 62
     0
 10
7.61919
 20
84.1527
 30
0.0
 11
7.61919
 21
98.1523
 31
0.0
  0
LINE
  8
0
 62
     0
 10
26.6692
 20
98.1523
 30
0.0
 11
40.67
 21
98.1523
 31
0.0
  0
LINE
  8
0
 62
     0
 10
40.67
 20
98.1523
 30
0.0
 11
40.67
 21
84.1527
 31
0.0
  0
LINE
  8
0
 62
     0
 10
40.67
 20
84.1527
 30
0.0
 11
26.6692
 21
84.1527
 31
0.0
  0
LINE
  8
0
 62
     0
 10
26.6692
 20
84.1527
 30
0.0
 11
26.6692
 21
98.1523
 31
0.0
  0
LINE
  8
0
 62
     0
 10
45.7193
 20
98.1523
 30
0.0
 11
59.72
 21
98.1523
 31
0.0
  0
LINE
  8
0
 62
     0
 10
59.72
 20
98.1523
 30
0.0
 11
59.72
 21
84.1527
 31
0.0
  0
LINE
  8
0
 62
     0
 10
59.72
 20
84.1527
 30
0.0
 11
45.7193
 21
84.1527
 31
0.0
  0
LINE
  8
0
 62
     0
 10
45.7193
 20
84.1527
 30
0.0
 11
45.7193
 21
98.1523
 31
0.0
  0
LINE
  8
0
 62
     0
 10
64.7693
 20
98.1523
 30
0.0
 11
78.77
 21
98.1523
 31
0.0
  0
LINE
  8
0
 62
     0
 10
78.77
 20
98.1523
 30
0.0
 11
78.77
 21
84.1527
 31
0.0
  0
LINE
  8
0
 62
     0
 10
78.77
 20
84.1527
 30
0.0
 11
64.7693
 21
84.1527
 31
0.0
  0
LINE
  8
0
 62
     0
 10
64.7693
 20
84.1527
 30
0.0
 11
64.7693
 21
98.1523
 31
0.0
  0
LINE
  8
0
 62
     0
 10
83.8193
 20
98.1523
 30
0.0
 11
97.82
 21
98.1523
 31
0.0
  0
LINE
  8
0
 62
     0
 10
97.82
 20
98.1523
 30
0.0
 11
97.82
 21
84.1527
 31
0.0
  0
LINE
  8
0
 62
     0
 10
97.82
 20
84.1527
 30
0.0
 11
83.8193
 21
84.1527
 31
0.0
  0
LINE
  8
0
 62
     0
 10
83.8193
 20
84.1527
 30
0.0
 11
83.8193
 21
98.1523
 31
0.0
  0
LINE
  8
0
 62
     0
 10
102.869
 20
98.1523
 30
0.0
 11
116.869
 21
98.1523
 31
0.0
  0
LINE
  8
0
 62
     0
 10
116.869
 20
98.1523
 30
0.0
 11
116.869
 21
84.1527
 31
0.0
  0
LINE
  8
0
 62
     0
 10
116.869
 20
84.1527
 30
0.0
 11
102.869
 21
84.1527
 31
0.0
  0
LINE
  8
0
 62
     0
 10
102.869
 20
84.1527
 30
0.0
 11
102.869
 21
98.1523
 31
0.0
  0
LINE
  8
0
 62
     0
 10
121.919
 20
98.1523
 30
0.0
 11
135.92
 21
98.1523
 31
0.0
  0
LINE
  8
0
 62
     0
 10
135.92
 20
98.1523
 30
0.0
 11
135.92
 21
84.1527
 31
0.0
  0
LINE
  8
0
 62
     0
 10
135.92
 20
84.1527
 30
0.0
 11
121.919
 21
84.1527
 31
0.0
  0
LINE
  8
0
 62
     0
 10
121.919
 20
84.1527
 30
0.0
 11
121.919
 21
98.1523
 31
0.0
  0
LINE
  8
0
 62
     0
 10
140.969
 20
98.1523
 30
0.0
 11
154.97
 21
98.1523
 31
0.0
  0
LINE
  8
0
 62
     0
 10
154.97
 20
98.1523
 30
0.0
 11
154.97
 21
84.1527
 31
0.0
  0
LINE
  8
0
 62
     0
 10
154.97
 20
84.1527
 30
0.0
 11
140.969
 21
84.1527
 31
0.0
  0
LINE
  8
0
 62
     0
 10
140.969
 20
84.1527
 30
0.0
 11
140.969
 21
98.1523
 31
0.0
  0
LINE
  8
0
 62
     0
 10
160.019
 20
98.1523
 30
0.0
 11
174.02
 21
98.1523
 31
0.0
  0
LINE
  8
0
 62
     0
 10
174.02
 20
98.1523
 30
0.0
 11
174.02
 21
84.1527
 31
0.0
  0
LINE
  8
0
 62
     0
 10
174.02
 20
84.1527
 30
0.0
 11
160.019
 21
84.1527
 31
0.0
  0
LINE
  8
0
 62
     0
 10
160.019
 20
84.1527
 30
0.0
 11
160.019
 21
98.1523
 31
0.0
  0
LINE
  8
0
 62
     0
 10
179.069
 20
98.1523
 30
0.0
 11
193.07
 21
98.1523
 31
0.0
  0
LINE
  8
0
 62
     0
 10
193.07
 20
98.1523
 30
0.0
 11
193.07
 21
84.1527
 31
0.0
  0
LINE
  8
0
 62
     0
 10
193.07
 20
84.1527
 30
0.0
 11
179.069
 21
84.1527
 31
0.0
  0
LINE
  8
0
 62
     0
 10
179.069
 20
84.1527
 30
0.0
 11
179.069
 21
98.1523
 31
0.0
  0
LINE
  8
0
 62
     0
 10
198.119
 20
98.1523
 30
0.0
 11
212.12
 21
98.1523
 31
0.0
  0
LINE
  8
0
 62
     0
 10
212.12
 20
98.1523
 30
0.0
 11
212.12
 21
84.1527
 31
0.0
  0
LINE
  8
0
 62
     0
 10
212.12
 20
84.1527
 30
0.0
 11
198.119
 21
84.1527
 31
0.0
  0
LINE
  8
0
 62
     0
 10
198.119
 20
84.1527
 30
0.0
 11
198.119
 21
98.1523
 31
0.0
  0
LINE
  8
0
 62
     0
 10
217.169
 20
98.1523
 30
0.0
 11
231.17
 21
98.1523
 31
0.0
  0
LINE
  8
0
 62
     0
 10
231.17
 20
98.1523
 30
0.0
 11
231.17
 21
84.1527
 31
0.0
  0
LINE
  8
0
 62
     0
 10
231.17
 20
84.1527
 30
0.0
 11
217.169
 21
84.1527
 31
0.0
  0
LINE
  8
0
 62
     0
 10
217.169
 20
84.1527
 30
0.0
 11
217.169
 21
98.1523
 31
0.0
  0
LINE
  8
0
 62
     0
 10
236.219
 20
98.1523
 30
0.0
 11
250.22
 21
98.1523
 31
0.0
  0
LINE
  8
0
 62
     0
 10
250.22
 20
98.1523
 30
0.0
 11
250.22
 21
84.1527
 31
0.0
  0
LINE
  8
0
 62
     0
 10
250.22
 20
84.1527
 30
0.0
 11
236.219
 21
84.1527
 31
0.0
  0
LINE
  8
0
 62
     0
 10
236.219
 20
84.1527
 30
0.0
 11
236.219
 21
98.1523
 31
0.0
  0
LINE
  8
0
 62
     0
 10
298.132
 20
98.1523
 30
0.0
 11
312.131
 21
98.1523
 31
0.0
  0
LINE
  8
0
 62
     0
 10
312.131
 20
98.1523
 30
0.0
 11
312.131
 21
84.1527
 31
0.0
  0
LINE
  8
0
 62
     0
 10
312.131
 20
84.1527
 30
0.0
 11
298.132
 21
84.1527
 31
0.0
  0
LINE
  8
0
 62
     0
 10
298.132
 20
84.1527
 30
0.0
 11
298.132
 21
98.1523
 31
0.0
  0
LINE
  8
0
 62
     0
 10
317.182
 20
98.1523
 30
0.0
 11
331.181
 21
98.1523
 31
0.0
  0
LINE
  8
0
 62
     0
 10
331.181
 20
98.1523
 30
0.0
 11
331.181
 21
84.1527
 31
0.0
  0
LINE
  8
0
 62
     0
 10
331.181
 20
84.1527
 30
0.0
 11
317.182
 21
84.1527
 31
0.0
  0
LINE
  8
0
 62
     0
 10
317.182
 20
84.1527
 30
0.0
 11
317.182
 21
98.1523
 31
0.0
  0
LINE
  8
0
 62
     0
 10
336.232
 20
98.1523
 30
0.0
 11
350.231
 21
98.1523
 31
0.0
  0
LINE
  8
0
 62
     0
 10
350.231
 20
98.1523
 30
0.0
 11
350.231
 21
84.1527
 31
0.0
  0
LINE
  8
0
 62
     0
 10
350.231
 20
84.1527
 30
0.0
 11
336.232
 21
84.1527
 31
0.0
  0
LINE
  8
0
 62
     0
 10
336.232
 20
84.1527
 30
0.0
 11
336.232
 21
98.1523
 31
0.0
  0
LINE
  8
0
 62
     0
 10
360.045
 20
98.1523
 30
0.0
 11
374.047
 21
98.1523
 31
0.0
  0
LINE
  8
0
 62
     0
 10
374.047
 20
98.1523
 30
0.0
 11
374.047
 21
84.1527
 31
0.0
  0
LINE
  8
0
 62
     0
 10
374.047
 20
84.1527
 30
0.0
 11
360.045
 21
84.1527
 31
0.0
  0
LINE
  8
0
 62
     0
 10
360.045
 20
84.1527
 30
0.0
 11
360.045
 21
98.1523
 31
0.0
  0
LINE
  8
0
 62
     0
 10
379.095
 20
98.1523
 30
0.0
 11
393.097
 21
98.1523
 31
0.0
  0
LINE
  8
0
 62
     0
 10
393.097
 20
98.1523
 30
0.0
 11
393.097
 21
84.1527
 31
0.0
  0
LINE
  8
0
 62
     0
 10
393.097
 20
84.1527
 30
0.0
 11
379.095
 21
84.1527
 31
0.0
  0
LINE
  8
0
 62
     0
 10
379.095
 20
84.1527
 30
0.0
 11
379.095
 21
98.1523
 31
0.0
  0
LINE
  8
0
 62
     0
 10
398.145
 20
98.1523
 30
0.0
 11
412.147
 21
98.1523
 31
0.0
  0
LINE
  8
0
 62
     0
 10
412.147
 20
98.1523
 30
0.0
 11
412.147
 21
84.1527
 31
0.0
  0
LINE
  8
0
 62
     0
 10
412.147
 20
84.1527
 30
0.0
 11
398.145
 21
84.1527
 31
0.0
  0
LINE
  8
0
 62
     0
 10
398.145
 20
84.1527
 30
0.0
 11
398.145
 21
98.1523
 31
0.0
  0
LINE
  8
0
 62
     0
 10
417.195
 20
98.1523
 30
0.0
 11
431.197
 21
98.1523
 31
0.0
  0
LINE
  8
0
 62
     0
 10
431.197
 20
98.1523
 30
0.0
 11
431.197
 21
84.1527
 31
0.0
  0
LINE
  8
0
 62
     0
 10
431.197
 20
84.1527
 30
0.0
 11
417.195
 21
84.1527
 31
0.0
  0
LINE
  8
0
 62
     0
 10
417.195
 20
84.1527
 30
0.0
 11
417.195
 21
98.1523
 31
0.0
  0
LINE
  8
0
 62
     0
 10
7.61919
 20
136.252
 30
0.0
 11
21.6201
 21
136.252
 31
0.0
  0
LINE
  8
0
 62
     0
 10
21.6201
 20
136.252
 30
0.0
 11
21.6201
 21
122.253
 31
0.0
  0
LINE
  8
0
 62
     0
 10
21.6201
 20
122.253
 30
0.0
 11
7.61919
 21
122.253
 31
0.0
  0
LINE
  8
0
 62
     0
 10
7.61919
 20
122.253
 30
0.0
 11
7.61919
 21
136.252
 31
0.0
  0
LINE
  8
0
 62
     0
 10
31.4317
 20
136.252
 30
0.0
 11
45.4311
 21
136.252
 31
0.0
  0
LINE
  8
0
 62
     0
 10
45.4311
 20
136.252
 30
0.0
 11
45.4311
 21
122.253
 31
0.0
  0
LINE
  8
0
 62
     0
 10
45.4311
 20
122.253
 30
0.0
 11
31.4317
 21
122.253
 31
0.0
  0
LINE
  8
0
 62
     0
 10
31.4317
 20
122.253
 30
0.0
 11
31.4317
 21
136.252
 31
0.0
  0
LINE
  8
0
 62
     0
 10
50.4818
 20
136.252
 30
0.0
 11
64.4811
 21
136.252
 31
0.0
  0
LINE
  8
0
 62
     0
 10
64.4811
 20
136.252
 30
0.0
 11
64.4811
 21
122.253
 31
0.0
  0
LINE
  8
0
 62
     0
 10
64.4811
 20
122.253
 30
0.0
 11
50.4818
 21
122.253
 31
0.0
  0
LINE
  8
0
 62
     0
 10
50.4818
 20
122.253
 30
0.0
 11
50.4818
 21
136.252
 31
0.0
  0
LINE
  8
0
 62
     0
 10
69.5318
 20
136.252
 30
0.0
 11
83.5311
 21
136.252
 31
0.0
  0
LINE
  8
0
 62
     0
 10
83.5311
 20
136.252
 30
0.0
 11
83.5311
 21
122.253
 31
0.0
  0
LINE
  8
0
 62
     0
 10
83.5311
 20
122.253
 30
0.0
 11
69.5318
 21
122.253
 31
0.0
  0
LINE
  8
0
 62
     0
 10
69.5318
 20
122.253
 30
0.0
 11
69.5318
 21
136.252
 31
0.0
  0
LINE
  8
0
 62
     0
 10
88.5818
 20
136.252
 30
0.0
 11
102.581
 21
136.252
 31
0.0
  0
LINE
  8
0
 62
     0
 10
102.581
 20
136.252
 30
0.0
 11
102.581
 21
122.253
 31
0.0
  0
LINE
  8
0
 62
     0
 10
102.581
 20
122.253
 30
0.0
 11
88.5818
 21
122.253
 31
0.0
  0
LINE
  8
0
 62
     0
 10
88.5818
 20
122.253
 30
0.0
 11
88.5818
 21
136.252
 31
0.0
  0
LINE
  8
0
 62
     0
 10
112.394
 20
136.252
 30
0.0
 11
126.395
 21
136.252
 31
0.0
  0
LINE
  8
0
 62
     0
 10
126.395
 20
136.252
 30
0.0
 11
126.395
 21
122.253
 31
0.0
  0
LINE
  8
0
 62
     0
 10
126.395
 20
122.253
 30
0.0
 11
112.394
 21
122.253
 31
0.0
  0
LINE
  8
0
 62
     0
 10
112.394
 20
122.253
 30
0.0
 11
112.394
 21
136.252
 31
0.0
  0
LINE
  8
0
 62
     0
 10
131.444
 20
136.252
 30
0.0
 11
145.445
 21
136.252
 31
0.0
  0
LINE
  8
0
 62
     0
 10
145.445
 20
136.252
 30
0.0
 11
145.445
 21
122.253
 31
0.0
  0
LINE
  8
0
 62
     0
 10
145.445
 20
122.253
 30
0.0
 11
131.444
 21
122.253
 31
0.0
  0
LINE
  8
0
 62
     0
 10
131.444
 20
122.253
 30
0.0
 11
131.444
 21
136.252
 31
0.0
  0
LINE
  8
0
 62
     0
 10
150.494
 20
136.252
 30
0.0
 11
164.495
 21
136.252
 31
0.0
  0
LINE
  8
0
 62
     0
 10
164.495
 20
136.252
 30
0.0
 11
164.495
 21
122.253
 31
0.0
  0
LINE
  8
0
 62
     0
 10
164.495
 20
122.253
 30
0.0
 11
150.494
 21
122.253
 31
0.0
  0
LINE
  8
0
 62
     0
 10
150.494
 20
122.253
 30
0.0
 11
150.494
 21
136.252
 31
0.0
  0
LINE
  8
0
 62
     0
 10
169.544
 20
136.252
 30
0.0
 11
183.545
 21
136.252
 31
0.0
  0
LINE
  8
0
 62
     0
 10
183.545
 20
136.252
 30
0.0
 11
183.545
 21
122.253
 31
0.0
  0
LINE
  8
0
 62
     0
 10
183.545
 20
122.253
 30
0.0
 11
169.544
 21
122.253
 31
0.0
  0
LINE
  8
0
 62
     0
 10
169.544
 20
122.253
 30
0.0
 11
169.544
 21
136.252
 31
0.0
  0
LINE
  8
0
 62
     0
 10
193.357
 20
136.252
 30
0.0
 11
207.356
 21
136.252
 31
0.0
  0
LINE
  8
0
 62
     0
 10
207.356
 20
136.252
 30
0.0
 11
207.356
 21
122.253
 31
0.0
  0
LINE
  8
0
 62
     0
 10
207.356
 20
122.253
 30
0.0
 11
193.357
 21
122.253
 31
0.0
  0
LINE
  8
0
 62
     0
 10
193.357
 20
122.253
 30
0.0
 11
193.357
 21
136.252
 31
0.0
  0
LINE
  8
0
 62
     0
 10
212.407
 20
136.252
 30
0.0
 11
226.406
 21
136.252
 31
0.0
  0
LINE
  8
0
 62
     0
 10
226.406
 20
136.252
 30
0.0
 11
226.406
 21
122.253
 31
0.0
  0
LINE
  8
0
 62
     0
 10
226.406
 20
122.253
 30
0.0
 11
212.407
 21
122.253
 31
0.0
  0
LINE
  8
0
 62
     0
 10
212.407
 20
122.253
 30
0.0
 11
212.407
 21
136.252
 31
0.0
  0
LINE
  8
0
 62
     0
 10
231.457
 20
136.252
 30
0.0
 11
245.456
 21
136.252
 31
0.0
  0
LINE
  8
0
 62
     0
 10
245.456
 20
136.252
 30
0.0
 11
245.456
 21
122.253
 31
0.0
  0
LINE
  8
0
 62
     0
 10
245.456
 20
122.253
 30
0.0
 11
231.457
 21
122.253
 31
0.0
  0
LINE
  8
0
 62
     0
 10
231.457
 20
122.253
 30
0.0
 11
231.457
 21
136.252
 31
0.0
  0
LINE
  8
0
 62
     0
 10
250.507
 20
136.252
 30
0.0
 11
264.506
 21
136.252
 31
0.0
  0
LINE
  8
0
 62
     0
 10
264.506
 20
136.252
 30
0.0
 11
264.506
 21
122.253
 31
0.0
  0
LINE
  8
0
 62
     0
 10
264.506
 20
122.253
 30
0.0
 11
250.507
 21
122.253
 31
0.0
  0
LINE
  8
0
 62
     0
 10
250.507
 20
122.253
 30
0.0
 11
250.507
 21
136.252
 31
0.0
  0
LINE
  8
0
 62
     0
 10
274.319
 20
136.252
 30
0.0
 11
288.32
 21
136.252
 31
0.0
  0
LINE
  8
0
 62
     0
 10
288.32
 20
136.252
 30
0.0
 11
288.32
 21
122.253
 31
0.0
  0
LINE
  8
0
 62
     0
 10
288.32
 20
122.253
 30
0.0
 11
274.319
 21
122.253
 31
0.0
  0
LINE
  8
0
 62
     0
 10
274.319
 20
122.253
 30
0.0
 11
274.319
 21
136.252
 31
0.0
  0
LINE
  8
0
 62
     0
 10
298.132
 20
136.252
 30
0.0
 11
312.131
 21
136.252
 31
0.0
  0
LINE
  8
0
 62
     0
 10
312.131
 20
136.252
 30
0.0
 11
312.131
 21
122.253
 31
0.0
  0
LINE
  8
0
 62
     0
 10
312.131
 20
122.253
 30
0.0
 11
298.132
 21
122.253
 31
0.0
  0
LINE
  8
0
 62
     0
 10
298.132
 20
122.253
 30
0.0
 11
298.132
 21
136.252
 31
0.0
  0
LINE
  8
0
 62
     0
 10
317.182
 20
136.252
 30
0.0
 11
331.181
 21
136.252
 31
0.0
  0
LINE
  8
0
 62
     0
 10
331.181
 20
136.252
 30
0.0
 11
331.181
 21
122.253
 31
0.0
  0
LINE
  8
0
 62
     0
 10
331.181
 20
122.253
 30
0.0
 11
317.182
 21
122.253
 31
0.0
  0
LINE
  8
0
 62
     0
 10
317.182
 20
122.253
 30
0.0
 11
317.182
 21
136.252
 31
0.0
  0
LINE
  8
0
 62
     0
 10
336.232
 20
136.252
 30
0.0
 11
350.231
 21
136.252
 31
0.0
  0
LINE
  8
0
 62
     0
 10
350.231
 20
136.252
 30
0.0
 11
350.231
 21
122.253
 31
0.0
  0
LINE
  8
0
 62
     0
 10
350.231
 20
122.253
 30
0.0
 11
336.232
 21
122.253
 31
0.0
  0
LINE
  8
0
 62
     0
 10
336.232
 20
122.253
 30
0.0
 11
336.232
 21
136.252
 31
0.0
  0
LINE
  8
0
 62
     0
 10
360.045
 20
136.252
 30
0.0
 11
374.047
 21
136.252
 31
0.0
  0
LINE
  8
0
 62
     0
 10
374.047
 20
136.252
 30
0.0
 11
374.047
 21
122.253
 31
0.0
  0
LINE
  8
0
 62
     0
 10
374.047
 20
122.253
 30
0.0
 11
360.045
 21
122.253
 31
0.0
  0
LINE
  8
0
 62
     0
 10
360.045
 20
122.253
 30
0.0
 11
360.045
 21
136.252
 31
0.0
  0
LINE
  8
0
 62
     0
 10
379.095
 20
136.252
 30
0.0
 11
393.097
 21
136.252
 31
0.0
  0
LINE
  8
0
 62
     0
 10
393.097
 20
136.252
 30
0.0
 11
393.097
 21
122.253
 31
0.0
  0
LINE
  8
0
 62
     0
 10
393.097
 20
122.253
 30
0.0
 11
379.095
 21
122.253
 31
0.0
  0
LINE
  8
0
 62
     0
 10
379.095
 20
122.253
 30
0.0
 11
379.095
 21
136.252
 31
0.0
  0
LINE
  8
0
 62
     0
 10
398.145
 20
136.252
 30
0.0
 11
412.147
 21
136.252
 31
0.0
  0
LINE
  8
0
 62
     0
 10
412.147
 20
136.252
 30
0.0
 11
412.147
 21
122.253
 31
0.0
  0
LINE
  8
0
 62
     0
 10
412.147
 20
122.253
 30
0.0
 11
398.145
 21
122.253
 31
0.0
  0
LINE
  8
0
 62
     0
 10
398.145
 20
122.253
 30
0.0
 11
398.145
 21
136.252
 31
0.0
  0
LINE
  8
0
 62
     0
 10
417.195
 20
136.252
 30
0.0
 11
431.197
 21
136.252
 31
0.0
  0
LINE
  8
0
 62
     0
 10
431.197
 20
136.252
 30
0.0
 11
431.197
 21
122.253
 31
0.0
  0
LINE
  8
0
 62
     0
 10
431.197
 20
122.253
 30
0.0
 11
417.195
 21
122.253
 31
0.0
  0
LINE
  8
0
 62
     0
 10
417.195
 20
122.253
 30
0.0
 11
417.195
 21
136.252
 31
0.0
  0
ENDSEC
  0
EOF
