  0
SECTION
  2
HEADER
  9
$ACADVER
  1
AC1009
  9
$FILLMODE
 70
 0
  9
$SPLFRAME
 70
 1
  9
$EXTMIN
 10
0
 20
0
 30
0.0
  9
$EXTMAX
 10
1058.33
 20
1058.33
 30
0.0
  0
ENDSEC
  0
SECTION
  2
TABLES
  0
TABLE
  2
LAYER
 70
1
  0
LAYER
  2
0
 70
     0
 62
     7
  6
CONTINUOUS
  0
ENDTAB
  0
ENDSEC
  0
SECTION
  2
ENTITIES
  0
LINE
  8
0
 62
     0
 10
0.0950846
 20
148.777
 30
0.0
 11
438.721
 21
148.777
 31
0.0
  0
LINE
  8
0
 62
     0
 10
438.721
 20
148.777
 30
0.0
 11
438.721
 21
0.427193
 31
0.0
  0
LINE
  8
0
 62
     0
 10
438.721
 20
0.427193
 30
0.0
 11
0.0950846
 21
0.427193
 31
0.0
  0
LINE
  8
0
 62
     0
 10
0.0950846
 20
0.427193
 30
0.0
 11
0.0950846
 21
148.777
 31
0.0
  0
LINE
  8
0
 62
     0
 10
5.09185
 20
100.678
 30
0.0
 11
5.09185
 21
81.6268
 31
0.0
  0
LINE
  8
0
 62
     0
 10
5.09185
 20
81.6268
 30
0.0
 11
5.09323
 21
81.6268
 31
0.0
  0
LINE
  8
0
 62
     0
 10
5.09323
 20
81.6268
 30
0.0
 11
5.09323
 21
62.5782
 31
0.0
  0
LINE
  8
0
 62
     0
 10
5.09323
 20
62.5782
 30
0.0
 11
5.09185
 21
62.5782
 31
0.0
  0
LINE
  8
0
 62
     0
 10
5.09185
 20
62.5782
 30
0.0
 11
5.09185
 21
43.5282
 31
0.0
  0
LINE
  8
0
 62
     0
 10
5.09185
 20
43.5282
 30
0.0
 11
5.09323
 21
43.5282
 31
0.0
  0
LINE
  8
0
 62
     0
 10
5.09323
 20
43.5282
 30
0.0
 11
5.09323
 21
5.42671
 31
0.0
  0
LINE
  8
0
 62
     0
 10
5.09323
 20
5.42671
 30
0.0
 11
290.846
 21
5.42671
 31
0.0
  0
LINE
  8
0
 62
     0
 10
290.846
 20
5.42671
 30
0.0
 11
290.846
 21
100.678
 31
0.0
  0
LINE
  8
0
 62
     0
 10
290.846
 20
100.678
 30
0.0
 11
5.09185
 21
100.678
 31
0.0
  0
LINE
  8
0
 62
     0
 10
314.656
 20
43.5282
 30
0.0
 11
314.656
 21
24.4795
 31
0.0
  0
LINE
  8
0
 62
     0
 10
314.656
 20
24.4795
 30
0.0
 11
295.606
 21
24.4795
 31
0.0
  0
LINE
  8
0
 62
     0
 10
295.606
 20
24.4795
 30
0.0
 11
295.606
 21
5.42671
 31
0.0
  0
LINE
  8
0
 62
     0
 10
295.606
 20
5.42671
 30
0.0
 11
352.757
 21
5.42671
 31
0.0
  0
LINE
  8
0
 62
     0
 10
352.757
 20
5.42671
 30
0.0
 11
352.757
 21
24.4795
 31
0.0
  0
LINE
  8
0
 62
     0
 10
352.757
 20
24.4795
 30
0.0
 11
333.707
 21
24.4795
 31
0.0
  0
LINE
  8
0
 62
     0
 10
333.707
 20
24.4795
 30
0.0
 11
333.707
 21
43.5282
 31
0.0
  0
LINE
  8
0
 62
     0
 10
333.707
 20
43.5282
 30
0.0
 11
314.656
 21
43.5282
 31
0.0
  0
LINE
  8
0
 62
     0
 10
357.519
 20
100.678
 30
0.0
 11
433.723
 21
100.678
 31
0.0
  0
LINE
  8
0
 62
     0
 10
433.723
 20
100.678
 30
0.0
 11
433.723
 21
5.42671
 31
0.0
  0
LINE
  8
0
 62
     0
 10
433.723
 20
5.42671
 30
0.0
 11
357.519
 21
5.42671
 31
0.0
  0
LINE
  8
0
 62
     0
 10
357.519
 20
5.42671
 30
0.0
 11
357.519
 21
100.678
 31
0.0
  0
LINE
  8
0
 62
     0
 10
295.606
 20
100.678
 30
0.0
 11
352.757
 21
100.678
 31
0.0
  0
LINE
  8
0
 62
     0
 10
352.757
 20
100.678
 30
0.0
 11
352.757
 21
62.5768
 31
0.0
  0
LINE
  8
0
 62
     0
 10
352.757
 20
62.5768
 30
0.0
 11
295.606
 21
62.5768
 31
0.0
  0
LINE
  8
0
 62
     0
 10
295.606
 20
62.5768
 30
0.0
 11
295.606
 21
100.678
 31
0.0
  0
LINE
  8
0
 62
     0
 10
5.09185
 20
138.78
 30
0.0
 11
24.146
 21
138.78
 31
0.0
  0
LINE
  8
0
 62
     0
 10
24.146
 20
138.78
 30
0.0
 11
24.146
 21
119.727
 31
0.0
  0
LINE
  8
0
 62
     0
 10
24.146
 20
119.727
 30
0.0
 11
5.09185
 21
119.727
 31
0.0
  0
LINE
  8
0
 62
     0
 10
5.09185
 20
119.727
 30
0.0
 11
5.09185
 21
138.78
 31
0.0
  0
LINE
  8
0
 62
     0
 10
28.9057
 20
138.78
 30
0.0
 11
105.107
 21
138.78
 31
0.0
  0
LINE
  8
0
 62
     0
 10
105.107
 20
138.78
 30
0.0
 11
105.107
 21
119.727
 31
0.0
  0
LINE
  8
0
 62
     0
 10
105.107
 20
119.727
 30
0.0
 11
28.9057
 21
119.727
 31
0.0
  0
LINE
  8
0
 62
     0
 10
28.9057
 20
119.727
 30
0.0
 11
28.9057
 21
138.78
 31
0.0
  0
LINE
  8
0
 62
     0
 10
109.868
 20
138.78
 30
0.0
 11
186.071
 21
138.78
 31
0.0
  0
LINE
  8
0
 62
     0
 10
186.071
 20
138.78
 30
0.0
 11
186.071
 21
119.727
 31
0.0
  0
LINE
  8
0
 62
     0
 10
186.071
 20
119.727
 30
0.0
 11
109.868
 21
119.727
 31
0.0
  0
LINE
  8
0
 62
     0
 10
109.868
 20
119.727
 30
0.0
 11
109.868
 21
138.78
 31
0.0
  0
LINE
  8
0
 62
     0
 10
190.831
 20
138.78
 30
0.0
 11
267.032
 21
138.78
 31
0.0
  0
LINE
  8
0
 62
     0
 10
267.032
 20
138.78
 30
0.0
 11
267.032
 21
119.727
 31
0.0
  0
LINE
  8
0
 62
     0
 10
267.032
 20
119.727
 30
0.0
 11
190.831
 21
119.727
 31
0.0
  0
LINE
  8
0
 62
     0
 10
190.831
 20
119.727
 30
0.0
 11
190.831
 21
138.78
 31
0.0
  0
LINE
  8
0
 62
     0
 10
271.793
 20
138.78
 30
0.0
 11
290.846
 21
138.78
 31
0.0
  0
LINE
  8
0
 62
     0
 10
290.846
 20
138.78
 30
0.0
 11
290.846
 21
119.727
 31
0.0
  0
LINE
  8
0
 62
     0
 10
290.846
 20
119.727
 30
0.0
 11
271.793
 21
119.727
 31
0.0
  0
LINE
  8
0
 62
     0
 10
271.793
 20
119.727
 30
0.0
 11
271.793
 21
138.78
 31
0.0
  0
LINE
  8
0
 62
     0
 10
295.606
 20
138.78
 30
0.0
 11
352.757
 21
138.78
 31
0.0
  0
LINE
  8
0
 62
     0
 10
352.757
 20
138.78
 30
0.0
 11
352.757
 21
119.727
 31
0.0
  0
LINE
  8
0
 62
     0
 10
352.757
 20
119.727
 30
0.0
 11
295.606
 21
119.727
 31
0.0
  0
LINE
  8
0
 62
     0
 10
295.606
 20
119.727
 30
0.0
 11
295.606
 21
138.78
 31
0.0
  0
LINE
  8
0
 62
     0
 10
357.519
 20
138.78
 30
0.0
 11
433.723
 21
138.78
 31
0.0
  0
LINE
  8
0
 62
     0
 10
433.723
 20
138.78
 30
0.0
 11
433.723
 21
119.727
 31
0.0
  0
LINE
  8
0
 62
     0
 10
433.723
 20
119.727
 30
0.0
 11
357.519
 21
119.727
 31
0.0
  0
LINE
  8
0
 62
     0
 10
357.519
 20
119.727
 30
0.0
 11
357.519
 21
138.78
 31
0.0
  0
ENDSEC
  0
EOF
